<svg xmlns="http://www.w3.org/2000/svg" width="17.278" height="13.6" viewBox="0 0 17.278 13.6">
  <g id="Group_1576" data-name="Group 1576" transform="translate(-4969 -5387.669)">
    <path id="Path_6337" data-name="Path 6337" d="M13.937,4.05H11.609a.675.675,0,0,1,0-1.35h2.328a.675.675,0,0,1,0,1.35m.675,2.059a.675.675,0,0,0-.675-.675H11.609a.675.675,0,0,0,0,1.35h2.328a.675.675,0,0,0,.675-.675m-1.35,4.117a.675.675,0,1,0,.675-.675.675.675,0,0,0-.675.675m-1.35,0a.675.675,0,0,0-.675-.675H9.247a.675.675,0,1,0,0,1.35h1.991a.675.675,0,0,0,.675-.675m-4.691,0a.675.675,0,0,0-.675-.675H3.375a.675.675,0,1,0,0,1.35H6.547a.675.675,0,0,0,.675-.675m0-2.7V3.375A.675.675,0,0,0,6.547,2.7H3.375a.675.675,0,0,0-.675.675V7.525a.675.675,0,0,0,.675.675H6.547a.675.675,0,0,0,.675-.675M4.05,4.05H5.872v2.8H4.05Zm4.522-.675A.675.675,0,1,0,9.247,2.7a.675.675,0,0,0-.675.675m.034,2.733a.675.675,0,1,0,.675-.675.675.675,0,0,0-.675.675M17.278,10.9a.675.675,0,1,0-1.35,0,1.351,1.351,0,0,1-1.35,1.35H2.7A1.351,1.351,0,0,1,1.35,10.9V2.7A1.351,1.351,0,0,1,2.7,1.35H14.578a1.351,1.351,0,0,1,1.35,1.35V7.525a.675.675,0,1,0,1.35,0V2.7a2.7,2.7,0,0,0-2.7-2.7H2.7A2.7,2.7,0,0,0,0,2.7v8.2a2.7,2.7,0,0,0,2.7,2.7H14.578a2.7,2.7,0,0,0,2.7-2.7" transform="translate(4969 5387.669)" fill="#60e99c"/>
  </g>
</svg>
