<svg xmlns="http://www.w3.org/2000/svg" xmlns:xlink="http://www.w3.org/1999/xlink" width="20.217" height="26.956" viewBox="0 0 20.217 26.956">
  <defs>
    <clipPath id="clip-path">
      <rect id="Rectangle_2542" data-name="Rectangle 2542" width="20.217" height="26.956" fill="#fff"/>
    </clipPath>
  </defs>
  <g id="Group_1559" data-name="Group 1559" transform="translate(0 0)">
    <g id="Group_1473" data-name="Group 1473" transform="translate(0 0)" clip-path="url(#clip-path)">
      <path id="Path_6155" data-name="Path 6155" d="M17.69,26.956H2.527A2.53,2.53,0,0,1,0,24.429V2.527A2.53,2.53,0,0,1,2.527,0H17.69a2.53,2.53,0,0,1,2.527,2.527v21.9a2.53,2.53,0,0,1-2.527,2.527M2.527,1.685a.843.843,0,0,0-.842.842v21.9a.843.843,0,0,0,.842.842H17.69a.843.843,0,0,0,.842-.842V2.527a.843.843,0,0,0-.842-.842Z" transform="translate(0 0)" fill="#fff"/>
      <path id="Path_6156" data-name="Path 6156" d="M26.27,65.409H22.9a.842.842,0,1,1,0-1.684h3.37a.842.842,0,1,1,0,1.684" transform="translate(-14.477 -41.823)" fill="#fff"/>
    </g>
  </g>
</svg>
