<svg xmlns="http://www.w3.org/2000/svg" width="26.021" height="26.01" viewBox="0 0 26.021 26.01">
  <g id="Group_1889" data-name="Group 1889" transform="translate(555.703 -3059.1)">
    <path id="Path_6402" data-name="Path 6402" d="M-529.689,3066.393c0-.012.007-.022.007-.034a.761.761,0,0,0-.022-.11.8.8,0,0,0-.034-.166.774.774,0,0,0-.073-.137.785.785,0,0,0-.086-.127.8.8,0,0,0-.131-.107.805.805,0,0,0-.087-.072l-12.2-6.457c-.024-.012-.049-.011-.073-.021a.793.793,0,0,0-.155-.046.783.783,0,0,0-.152-.016.8.8,0,0,0-.152.016.824.824,0,0,0-.156.046c-.024.01-.049.009-.072.021l-12.2,6.457a.8.8,0,0,0-.087.072.808.808,0,0,0-.131.107.793.793,0,0,0-.086.127.79.79,0,0,0-.073.137.8.8,0,0,0-.034.166.762.762,0,0,0-.022.11c0,.012.006.022.007.034a.8.8,0,0,0,.032.158.818.818,0,0,0,.046.155c.005.011,0,.022.01.033s.031.027.043.045a.8.8,0,0,0,.218.229.793.793,0,0,0,.086.058.791.791,0,0,0,.372.1H-530.5a.791.791,0,0,0,.372-.1.8.8,0,0,0,.086-.058.8.8,0,0,0,.218-.229c.012-.018.033-.026.043-.045s0-.022.01-.033a.822.822,0,0,0,.046-.155A.809.809,0,0,0-529.689,3066.393Zm-13-5.571,8.923,4.723h-17.846Z" fill="#fff"/>
    <path id="Path_6403" data-name="Path 6403" d="M-497.542,3121.691a.813.813,0,0,0,.813.813h4.218a.813.813,0,0,0,.813-.813.808.808,0,0,0-.527-.755v-8.742a.809.809,0,0,0,.527-.756.813.813,0,0,0-.813-.813h-4.218a.813.813,0,0,0-.813.813.809.809,0,0,0,.527.756v8.742A.808.808,0,0,0-497.542,3121.691Zm2.154-.813v-8.627h1.537v8.627Z" transform="translate(-48.073 -42.588)" fill="#fff"/>
    <path id="Path_6404" data-name="Path 6404" d="M-538.074,3121.691a.813.813,0,0,0,.813.813h4.218a.813.813,0,0,0,.813-.813.808.808,0,0,0-.527-.755v-8.742a.809.809,0,0,0,.527-.756.813.813,0,0,0-.813-.813h-4.218a.813.813,0,0,0-.813.813.809.809,0,0,0,.527.756v8.742A.808.808,0,0,0-538.074,3121.691Zm2.154-.813v-8.627h1.538v8.627Z" transform="translate(-14.571 -42.588)" fill="#fff"/>
    <path id="Path_6405" data-name="Path 6405" d="M-457.01,3121.691a.813.813,0,0,0,.813.813h4.218a.813.813,0,0,0,.813-.813.808.808,0,0,0-.527-.755v-8.742a.809.809,0,0,0,.527-.756.813.813,0,0,0-.813-.813H-456.2a.813.813,0,0,0-.813.813.809.809,0,0,0,.527.756v8.742A.808.808,0,0,0-457.01,3121.691Zm2.154-.813v-8.627h1.537v8.627Z" transform="translate(-81.574 -42.588)" fill="#fff"/>
    <path id="Path_6406" data-name="Path 6406" d="M-549.556,3185.469a.813.813,0,0,0,.813.813h22.262a.813.813,0,0,0,.813-.813.813.813,0,0,0-.813-.813h-22.262A.813.813,0,0,0-549.556,3185.469Z" transform="translate(-5.081 -103.778)" fill="#fff"/>
    <path id="Path_6407" data-name="Path 6407" d="M-529.789,3199.679h-24.02a.813.813,0,0,0-.813.813.813.813,0,0,0,.813.813h24.02a.813.813,0,0,0,.813-.813A.813.813,0,0,0-529.789,3199.679Z" transform="translate(-0.893 -116.195)" fill="#fff"/>
  </g>
</svg>
