<svg xmlns="http://www.w3.org/2000/svg" width="19.429" height="21.588" viewBox="0 0 19.429 21.588">
  <g id="Page-1" transform="translate(41.319 -3358.438)">
    <g id="Core" transform="translate(-41.319 3358.438)">
      <g id="today" transform="translate(0 0)">
        <path id="Shape" d="M-24.048,3360.6h-1.079v-2.159h-2.159v2.159h-8.635v-2.159h-2.159v2.159H-39.16a2.165,2.165,0,0,0-2.159,2.159v15.112a2.165,2.165,0,0,0,2.159,2.159h15.112a2.165,2.165,0,0,0,2.159-2.159v-15.112a2.165,2.165,0,0,0-2.159-2.159Zm0,17.271H-39.16v-11.873h15.112v11.873Z" transform="translate(41.319 -3358.438)" fill="#90a0b2" fill-rule="evenodd"/>
        <rect id="Rectangle-path" width="5.397" height="5.397" transform="translate(4.318 9.715)" fill="#90a0b2"/>
      </g>
    </g>
  </g>
</svg>
