<svg xmlns="http://www.w3.org/2000/svg" width="19.429" height="14.591" viewBox="0 0 19.429 14.591">
  <g id="layer1" transform="translate(1565.208 -3004.897)">
    <path id="rect3000" d="M-1555.416,3004.9q-.414,0-.827,0a36.78,36.78,0,0,0-4.443.267,3.518,3.518,0,0,0-1.083,1.271,13.383,13.383,0,0,0-1.154,3.115,4.4,4.4,0,0,1-.371.465c-.133-.032.01-.331-.023-.474.078-.439-.448-.707-.815-.539-.371.143-.933.181-1.076.619a.872.872,0,0,0,.986.806c.22.036.313.31.449.461.011.8-.171,1.6-.125,2.411a5.908,5.908,0,0,0,.129,1.538.144.144,0,0,0,.127.055.308.308,0,0,0-.016.09v4.157a.36.36,0,0,0,.346.346h1.386a.36.36,0,0,0,.346-.346v-1.434h12.164v1.434a.36.36,0,0,0,.346.346h1.385a.36.36,0,0,0,.346-.346v-4.157a.317.317,0,0,0-.016-.1c.249,0,.186-.4.226-.58a16.576,16.576,0,0,0-.129-3.232,1.068,1.068,0,0,1,.443-.64.951.951,0,0,0,1.034-.73c-.065-.455-.635-.548-.993-.679-.324-.134-.874-.071-.907.361-.034.2.093.5.005.633-.2-.084-.281-.346-.417-.509a14.767,14.767,0,0,0-1-2.865,5.053,5.053,0,0,0-1.159-1.467,24.289,24.289,0,0,0-2.683-.226c-.827-.04-1.655-.057-2.483-.058Zm.221,1.5c1.467.02,2.947.01,4.4.152.466.049.558.6.788.924a4.87,4.87,0,0,1,.585,1.477,7.268,7.268,0,0,1-1.408.546,7.6,7.6,0,0,1-1.887.1c-2.367-.006-4.735.032-7.1-.018a16.646,16.646,0,0,1-1.755-.58,4.282,4.282,0,0,1,.525-1.44c.227-.35.361-.874.8-1.011C-1558.577,3006.377-1556.876,3006.418-1555.195,3006.4Zm-6.79,3.165a4.4,4.4,0,0,1,2.147.721.724.724,0,0,1,.141.841c-.509.215-1.143-.039-1.617.274-.352.219-.075.706-.3.974a2.33,2.33,0,0,1-1.3-.094c-.343-.264-.166-.788-.154-1.152C-1562.97,3010.519-1562.732,3009.609-1561.985,3009.562Zm13.062.005c.516.057.76.636.887,1.076a2.431,2.431,0,0,1,.05,1.539c-.3.322-.819.183-1.211.239-.224.075-.293-.143-.284-.322.028-.319-.033-.739-.417-.8-.444-.147-.947,0-1.379-.148a.759.759,0,0,1,.407-1.071,4.751,4.751,0,0,1,1.947-.514Z" transform="translate(0)" fill="#90a0b2"/>
  </g>
</svg>
