<svg id="Group_1675" data-name="Group 1675" xmlns="http://www.w3.org/2000/svg" xmlns:xlink="http://www.w3.org/1999/xlink" width="18.784" height="18.264" viewBox="0 0 18.784 18.264">
  <defs>
    <clipPath id="clip-path">
      <rect id="Rectangle_2675" data-name="Rectangle 2675" width="18.784" height="18.264" fill="#fff"/>
    </clipPath>
  </defs>
  <g id="Group_1673" data-name="Group 1673" clip-path="url(#clip-path)">
    <path id="Path_5864" data-name="Path 5864" d="M14.924,18.264a.694.694,0,0,1-.523-.237l-2.244-2.564a11.021,11.021,0,0,1-2.764.348A10.315,10.315,0,0,1,2.8,13.539,7.287,7.287,0,0,1,0,7.905,7.289,7.289,0,0,1,2.8,2.272,10.315,10.315,0,0,1,9.392,0a10.313,10.313,0,0,1,6.593,2.272,7.287,7.287,0,0,1,2.8,5.633,7.4,7.4,0,0,1-3.166,5.922V17.57a.694.694,0,0,1-.694.694M12.39,13.981a.7.7,0,0,1,.523.237l1.316,1.5V13.47a.694.694,0,0,1,.3-.573,6.1,6.1,0,0,0,2.863-4.991c0-3.593-3.59-6.516-8-6.516s-8,2.923-8,6.516,3.59,6.516,8,6.516a9.579,9.579,0,0,0,2.8-.41.711.711,0,0,1,.2-.03" fill="#fff"/>
    <path id="Path_5865" data-name="Path 5865" d="M131.6,99.209h-5.813a.694.694,0,0,1,0-1.389H131.6a.694.694,0,1,1,0,1.389" transform="translate(-119.299 -93.291)" fill="#fff"/>
    <path id="Path_5866" data-name="Path 5866" d="M131.6,155.809h-5.813a.694.694,0,0,1,0-1.389H131.6a.694.694,0,0,1,0,1.389" transform="translate(-119.299 -147.271)" fill="#fff"/>
    <path id="Path_5867" data-name="Path 5867" d="M131.6,212.409h-5.813a.694.694,0,1,1,0-1.389H131.6a.694.694,0,1,1,0,1.389" transform="translate(-119.299 -201.251)" fill="#fff"/>
  </g>
</svg>
