<svg xmlns="http://www.w3.org/2000/svg" width="26.021" height="25.874" viewBox="0 0 26.021 25.874">
  <g id="Layer_25" data-name="Layer 25" transform="translate(-1077.622 -1285.627)">
    <path id="Path_6408" data-name="Path 6408" d="M1139.241,1304.108a.839.839,0,0,1-.557-.213l-3.931-3.484h-1.6a7.406,7.406,0,0,1,0-14.785h5.218a7.188,7.188,0,0,1,6.938,7.413,7.328,7.328,0,0,1-5.2,7.131v3.013a.929.929,0,0,1-.5.841A.826.826,0,0,1,1139.241,1304.108Zm-6.088-16.633a5.554,5.554,0,0,0,0,11.089h1.913a.839.839,0,0,1,.557.212l2.748,2.43v-1.793a.908.908,0,0,1,.748-.924,5.516,5.516,0,0,0,4.306-6.368,5.33,5.33,0,0,0-5.053-4.647Z" transform="translate(-41.667)" fill="#fff"/>
    <rect id="Rectangle_4472" data-name="Rectangle 4472" width="1.739" height="1.848" transform="translate(1093.226 1292.095)" fill="#fff"/>
    <rect id="Rectangle_4473" data-name="Rectangle 4473" width="1.739" height="1.848" transform="translate(1088.878 1292.095)" fill="#fff"/>
    <rect id="Rectangle_4474" data-name="Rectangle 4474" width="1.739" height="1.848" transform="translate(1097.575 1292.095)" fill="#fff"/>
    <path id="Path_6409" data-name="Path 6409" d="M1083.659,1359.573a.827.827,0,0,1-.365-.083.93.93,0,0,1-.5-.841v-3.012a7.449,7.449,0,0,1-4.932-9.046,7.293,7.293,0,0,1,3.819-4.814.845.845,0,0,1,1.175.387.953.953,0,0,1-.364,1.248.886.886,0,0,1-.1.047,5.69,5.69,0,0,0-2.6,7.339,5.268,5.268,0,0,0,3.989,3.2.908.908,0,0,1,.748.924v1.793l2.748-2.43a.845.845,0,0,1,.557-.249h1.913a5.023,5.023,0,0,0,3.731-1.682.838.838,0,0,1,1.235-.018.969.969,0,0,1,.017,1.312h0a6.764,6.764,0,0,1-4.984,2.236h-1.6l-3.931,3.484A.839.839,0,0,1,1083.659,1359.573Z" transform="translate(0 -48.072)" fill="#fff"/>
  </g>
</svg>
