<svg xmlns="http://www.w3.org/2000/svg" width="14.108" height="22.572" viewBox="0 0 14.108 22.572">
  <path id="Path_5868" data-name="Path 5868" d="M630.171,7498.544a7.061,7.061,0,0,1-7.054-7.054v-9.875a.941.941,0,1,1,1.881,0v9.875a5.173,5.173,0,1,0,10.346,0v-10.346a3.292,3.292,0,1,0-6.583,0v9.405a1.411,1.411,0,0,0,2.822,0v-8.935a.941.941,0,1,1,1.881,0v8.935a3.292,3.292,0,1,1-6.584,0v-9.405a5.173,5.173,0,1,1,10.346,0v10.346A7.061,7.061,0,0,1,630.171,7498.544Z" transform="translate(-623.117 -7475.972)" fill="#90a0b2"/>
</svg>
