<svg xmlns="http://www.w3.org/2000/svg" xmlns:xlink="http://www.w3.org/1999/xlink" width="191.561" height="199.496" viewBox="0 0 191.561 199.496">
  <defs>
    <clipPath id="clip-path">
      <rect id="Rectangle_2638" data-name="Rectangle 2638" width="191.561" height="199.074" fill="none"/>
    </clipPath>
    <clipPath id="clip-path-2">
      <path id="Path_5710" data-name="Path 5710" d="M977.49,130.927A290.477,290.477,0,0,0,980.4,96.841c.546-17.833-.663-36.337-9.273-52.63A59.411,59.411,0,0,0,950.819,21.7a55.64,55.64,0,0,0-13.754-6.368,49.13,49.13,0,0,0-14.992-2.267,47.033,47.033,0,0,0-29.925,10.847c-7.023,5.55-12.664,12.577-18.256,19.376-2.361,2.871-4.746,5.724-7.276,8.464a75.487,75.487,0,0,1-12.3,10.31,149.832,149.832,0,0,1-15.566,7.478,115.388,115.388,0,0,0-17.881,9.569,80.34,80.34,0,0,0-13.944,12.219,63.538,63.538,0,0,0-9.2,12.563,64.948,64.948,0,0,0-6.858,16.607,68.513,68.513,0,0,0-1.788,10.25,63.462,63.462,0,0,0,.176,10.022,58.85,58.85,0,0,0,10.292,27.4,63.854,63.854,0,0,0,7.6,11.581,74.666,74.666,0,0,0,10.738,10.486,83.907,83.907,0,0,0,11.252,7.845c17.347,10.122,37.976,14.168,58.111,14.042,17.672-.11,36.327-2.51,52.01-10.865,18.6-9.911,27.614-27.1,33.054-46.086a191.35,191.35,0,0,0,5.172-24.25" transform="translate(-788.953 -13.058)" fill="#90a0b2"/>
    </clipPath>
    <clipPath id="clip-path-3">
      <rect id="Rectangle_2639" data-name="Rectangle 2639" width="19.094" height="27.141" fill="none"/>
    </clipPath>
    <clipPath id="clip-path-4">
      <rect id="Rectangle_2641" data-name="Rectangle 2641" width="19.09" height="27.141" fill="none"/>
    </clipPath>
    <clipPath id="clip-path-5">
      <rect id="Rectangle_2642" data-name="Rectangle 2642" width="123.142" height="2.035" fill="none"/>
    </clipPath>
  </defs>
  <g id="Group_1708" data-name="Group 1708" transform="translate(-2072.97 313.946)">
    <g id="Group_1605" data-name="Group 1605" transform="translate(2072.97 -313.946)" opacity="0.12">
      <g id="Group_1604" data-name="Group 1604">
        <g id="Group_1603" data-name="Group 1603" clip-path="url(#clip-path)">
          <g id="Group_1602" data-name="Group 1602" transform="translate(0 0)">
            <g id="Group_1601" data-name="Group 1601" clip-path="url(#clip-path-2)">
              <rect id="Rectangle_2637" data-name="Rectangle 2637" width="192.133" height="199.311" transform="translate(-0.135 -0.114)" fill="#90a0b2"/>
            </g>
          </g>
        </g>
      </g>
    </g>
    <path id="Path_5711" data-name="Path 5711" d="M932.485,167.327c-33.652,0-83.587-12.724-83.587-12.724,0-1.636,21.3-40.653,44.1-44.926q1.036-.194,2.077-.291l1.092-5.585,1.073-5.481h17.8l1.114,6.286.548,3.095s.977.149,2.655.579c8.1,2.087,32.579,10.782,42.343,41.27,4.325,13.5-9.709,17.776-29.214,17.776" transform="translate(1266.478 -351.95)" fill="#fff"/>
    <path id="Path_5712" data-name="Path 5712" d="M932.319,167.562c-17.415,0-39.244-3.464-54.488-6.37-16.512-3.147-29.073-6.336-29.2-6.368l-.3-.076v-.312c0-.674,1.882-4.19,3.74-7.314a141.982,141.982,0,0,1,9.844-14.406c7.416-9.519,18.787-21.34,30.844-23.6.614-.115,1.224-.2,1.815-.267l2.172-11.1h18.463l1.672,9.434c.407.074,1.237.238,2.409.539a60.578,60.578,0,0,1,20.69,10.052,59.731,59.731,0,0,1,12.28,12.351,65.863,65.863,0,0,1,9.656,19.134c1.345,4.2,1,7.743-1.036,10.529-1.994,2.734-5.652,4.771-10.87,6.056a76.194,76.194,0,0,1-17.69,1.714m-83.093-13.414c2.259.565,13.909,3.428,28.76,6.259,15.21,2.9,36.983,6.353,54.333,6.353,14.918,0,24.31-2.5,27.913-7.439,1.873-2.568,2.183-5.869.92-9.813-9.772-30.513-34.665-39.1-42.062-41-1.635-.419-2.606-.57-2.615-.572l-.284-.044-1.653-9.332H897.406l-2.16,11.037-.3.027c-.66.061-1.345.156-2.04.286-11.751,2.2-22.915,13.785-30.212,23.115-7.851,10.038-12.734,19.235-13.468,21.128" transform="translate(1266.644 -351.784)"/>
    <path id="Path_5713" data-name="Path 5713" d="M932.485,171.446c-33.651,0-83.587-12.725-83.587-12.725,0-1.568,13.71-37.829,41.287-44.6.951-.234,1.873-.144,2.814-.32,2.781,3.7,13.421,15.418,26.356-1.4.68.175,1.478.006,2.372.283,9.742,3.028,33.82,13.092,39.971,40.987,3.053,13.845-9.71,17.776-29.214,17.776" transform="translate(1266.478 -356.069)" fill="#90a0b2"/>
    <path id="Path_5714" data-name="Path 5714" d="M891.133,164.331l2.992-5.222-1.024,5.222Z" transform="translate(1254.121 -369.736)" fill="#0d2042"/>
    <path id="Path_5715" data-name="Path 5715" d="M968.22,163.587l-.709-4.477,2.678,4.477Z" transform="translate(1231.775 -369.736)" fill="#0d2042"/>
    <path id="Path_5716" data-name="Path 5716" d="M938.8,113.075c-3.413,5.857-9.574,16.5-9.574,17.025,0,.722-5.979-6.252-5.979-6.252l-6.288,6.252-9.7-15.6a24.908,24.908,0,0,1,2.814-.7c2.781,3.7,13.42,15.417,26.356-1.4.68.175,1.478.4,2.372.674" transform="translate(1249.402 -356.07)" fill="#fff"/>
    <path id="Path_5717" data-name="Path 5717" d="M916.634,130.551l-10.241-16.467.495-.154a25.361,25.361,0,0,1,2.859-.715l.245-.046.15.2c1.633,2.173,6.081,7.232,12.088,7.266,4.6.024,9.186-2.889,13.63-8.666l.161-.209.256.066c.764.2,1.569.425,2.391.679l.481.149-.254.436c-5.765,9.894-9.317,16.186-9.521,16.868a.442.442,0,0,1-.285.381c-.294.109-.543-.016-1.53-1.013-.517-.521-1.2-1.257-2.042-2.187-1.041-1.157-2.065-2.336-2.544-2.89Zm12.741-.639h0Zm-6.355-6.841.28.328c2.146,2.5,4.571,5.185,5.457,5.97.308-.666,1.14-2.23,3.378-6.166,1.885-3.314,4.156-7.233,5.814-10.079-.552-.166-1.093-.318-1.616-.456-4.534,5.819-9.257,8.768-14.04,8.768h-.066c-6.187-.035-10.755-5.021-12.573-7.385-.671.134-1.351.3-2.028.5l9.16,14.728Z" transform="translate(1249.656 -355.882)"/>
    <path id="Path_5718" data-name="Path 5718" d="M965.844,195.867l-1.068,13.771L963,232.54l-2.567,33.1h-111.1l-6.873-64.593Z" transform="translate(1268.362 -380.49)" fill="#fff"/>
    <path id="Path_5719" data-name="Path 5719" d="M960.619,265.867H848.788l-6.957-65.376,124.263-5.217Zm-111.11-.8h110.37l2.538-32.73,2.809-36.222-122.507,5.143Z" transform="translate(1268.546 -380.317)"/>
    <path id="Path_5720" data-name="Path 5720" d="M856.5,225.969l106.853-1.943-5.018,19.167-100.208,3.045Z" transform="translate(1264.253 -388.729)" fill="#1b3149"/>
    <g id="Group_1608" data-name="Group 1608" transform="translate(2112.007 -168.912)" opacity="0.36" style="mix-blend-mode: multiply;isolation: isolate">
      <g id="Group_1607" data-name="Group 1607">
        <g id="Group_1606" data-name="Group 1606" clip-path="url(#clip-path-3)">
          <path id="Path_5721" data-name="Path 5721" d="M844.137,218.076l1.776,22.9c5.325,2.212,11.416,4.587,12.13,4.2,1.3-.709,1.318-4.859,1.318-4.859,1.924-.314,3.268-2.205,3.8-4.2s-2.484-3.055-2.484-3.055a3.634,3.634,0,0,0,1.563-3.667c-.385-2.52-3.431-2.94-3.431-2.94,2.381-1.366,1.295-4.411.548-5.461s-15.225-2.917-15.225-2.917" transform="translate(-844.136 -218.076)"/>
        </g>
      </g>
    </g>
    <path id="Path_5722" data-name="Path 5722" d="M841.269,215.623s7.321,2.493,11.935,2.871a3.686,3.686,0,0,1,2.391,1.1c.731.773,1.181,1.948-.224,3.439-2.646,2.806-13.229-.722-13.229-.722s8.5,2.886,12.907,2.645,4.09,3.769,3.288,4.49-8.9,1.2-15.634-1.042c0,0,7.2,2.736,13.343,2.954a4.21,4.21,0,0,1,2.721,1.087c.916.85,1.44,2.141-.831,3.655-4.09,2.726-14.591-1.843-14.591-1.843s5.734,2.936,9.953,3.456a2.893,2.893,0,0,1,2.2,1.475c.451.842.471,1.964-1.252,3.086-3.448,2.245-13.871-2.966-14.111-3.207s-4.009-2-2.405-5.692c0,0-2.245-3.609-.722-5.933,0,0-2.262-3.607-.53-6.013,0,0-2.757-5.371-.272-7.215,0,0-2.405-3.447-1.684-5.292s6.017-.12,6.017-.12Z" transform="translate(1270.723 -384.06)" fill="#fff"/>
    <path id="Path_5723" data-name="Path 5723" d="M851.69,243.068a19.407,19.407,0,0,1-6-1.255,34.578,34.578,0,0,1-6.005-2.632.1.1,0,0,0,.014.014c-.021-.018-.1-.067-.17-.111a6.818,6.818,0,0,1-2.052-1.868,4.065,4.065,0,0,1-.361-3.979c-.437-.768-1.967-3.756-.742-5.967-.463-.824-1.933-3.792-.525-6.041-.485-1.02-2.338-5.294-.341-7.256-.61-.942-2.2-3.648-1.526-5.365.376-.961,1.624-1.3,3.708-1a18.567,18.567,0,0,1,2.806.647l.247.081.726,6.825c1.3.43,7.552,2.439,11.6,2.77a4.08,4.08,0,0,1,2.649,1.221c.661.7,1.512,2.148-.224,3.989a4.5,4.5,0,0,1-2.9,1.155,14.13,14.13,0,0,0,2.27.093c2.646-.144,3.6,1.176,3.931,1.977a3.2,3.2,0,0,1-.354,3.211c-.623.561-3.4.753-5.869.695-.416-.01-.912-.029-1.47-.064a31.888,31.888,0,0,0,4.794.583,4.613,4.613,0,0,1,2.981,1.194,2.373,2.373,0,0,1,.9,1.93,3.4,3.4,0,0,1-1.785,2.352,6.991,6.991,0,0,1-3.866.933c-.242,0-.488-.007-.735-.02a3.274,3.274,0,0,1,2.3,1.65c.4.751.755,2.216-1.387,3.612a4.74,4.74,0,0,1-2.611.627m-11.459-4.476a39.279,39.279,0,0,0,5.872,2.513c3.781,1.279,6.464,1.509,7.761.664,1.242-.809,1.608-1.647,1.118-2.562a2.485,2.485,0,0,0-1.9-1.266c-4.241-.521-9.85-3.375-10.086-3.5l.342-.724c.1.045,10.349,4.452,14.209,1.878.906-.6,1.387-1.193,1.432-1.75a1.626,1.626,0,0,0-.65-1.278,3.809,3.809,0,0,0-2.464-.981c-6.139-.219-13.4-2.952-13.471-2.98l.269-.755a35.5,35.5,0,0,0,9.88,1.612c3.229.08,5.112-.285,5.359-.489a2.5,2.5,0,0,0,.149-2.307c-.44-1.059-1.528-1.573-3.147-1.483-.184.01-.375.015-.572.015-4.537,0-12.151-2.567-12.487-2.682l.256-.76c2.876.959,10.785,2.975,12.81.827.994-1.053,1.067-2,.225-2.888a3.281,3.281,0,0,0-2.132-.973c-4.611-.377-11.731-2.788-12.032-2.891l-.242-.082-.725-6.817c-1.694-.511-4.854-1.109-5.273-.038-.526,1.346,1,4.005,1.639,4.916l.223.319-.313.232c-2.184,1.62.364,6.66.39,6.711l.111.218-.143.2c-1.553,2.156.523,5.533.545,5.567l.136.217-.14.215c-1.364,2.081.705,5.467.727,5.5l.11.178-.084.193c-1.275,2.932,1.213,4.52,2.03,5.043a2.166,2.166,0,0,1,.267.183m.009.008.015.015-.015-.015" transform="translate(1270.888 -383.894)"/>
    <path id="Path_5724" data-name="Path 5724" d="M870.025,243.638V230.205h4.957a7.493,7.493,0,0,1,2.93.53,6.027,6.027,0,0,1,2.1,1.437,5.95,5.95,0,0,1,1.268,2.129,7.908,7.908,0,0,1,.422,2.6,7.747,7.747,0,0,1-.471,2.772,5.912,5.912,0,0,1-1.355,2.119,6.1,6.1,0,0,1-2.123,1.362,7.593,7.593,0,0,1-2.776.482Zm9.011-6.735a5.653,5.653,0,0,0-.269-1.779,3.976,3.976,0,0,0-.787-1.4,3.5,3.5,0,0,0-1.278-.908,4.369,4.369,0,0,0-1.719-.322h-2.305v8.855h2.305a4.222,4.222,0,0,0,1.739-.34,3.58,3.58,0,0,0,1.268-.937,4.152,4.152,0,0,0,.777-1.409,5.575,5.575,0,0,0,.269-1.759" transform="translate(1260.297 -390.537)" fill="#fff"/>
    <path id="Path_5725" data-name="Path 5725" d="M899,241.349v2.289h-9.472V230.205h9.3v2.289h-6.647v3.236h5.745v2.119h-5.745v3.5Z" transform="translate(1254.592 -390.537)" fill="#fff"/>
    <path id="Path_5726" data-name="Path 5726" d="M905.928,243.639V230.205h2.651v11.144h6.955v2.289Z" transform="translate(1249.792 -390.537)" fill="#fff"/>
    <rect id="Rectangle_2640" data-name="Rectangle 2640" width="2.651" height="13.415" transform="translate(2167.037 -160.313)" fill="#fff"/>
    <path id="Path_5727" data-name="Path 5727" d="M930.468,230.205l3.689,10.16,3.65-10.16h2.786l-5.322,13.433h-2.228l-5.361-13.433Z" transform="translate(1243.427 -390.537)" fill="#fff"/>
    <path id="Path_5728" data-name="Path 5728" d="M957.442,241.349v2.289h-9.472V230.205h9.3v2.289h-6.647v3.236h5.745v2.119h-5.745v3.5Z" transform="translate(1237.492 -390.537)" fill="#fff"/>
    <path id="Path_5729" data-name="Path 5729" d="M964.373,243.639V230.205h6.033a3.928,3.928,0,0,1,1.739.388,4.508,4.508,0,0,1,1.374,1.021,4.813,4.813,0,0,1,.9,1.438,4.271,4.271,0,0,1,.327,1.618,4.419,4.419,0,0,1-.663,2.374,3.784,3.784,0,0,1-1.8,1.542l3.209,5.052h-3l-2.862-4.5h-2.613v4.5Zm2.651-6.793h3.324a1.426,1.426,0,0,0,.682-.171,1.729,1.729,0,0,0,.547-.463,2.305,2.305,0,0,0,.365-.691,2.649,2.649,0,0,0,.135-.851,2.413,2.413,0,0,0-.154-.871,2.283,2.283,0,0,0-.413-.69,1.878,1.878,0,0,0-.6-.455,1.574,1.574,0,0,0-.682-.161h-3.209Z" transform="translate(1232.693 -390.537)" fill="#fff"/>
    <path id="Path_5730" data-name="Path 5730" d="M982.492,230.205l3.362,6.47,3.42-6.47h2.863l-4.957,8.741v4.692h-2.632v-4.73l-4.938-8.7Z" transform="translate(1228.235 -390.537)" fill="#fff"/>
    <g id="Group_1611" data-name="Group 1611" transform="translate(2214.045 -170.852)" opacity="0.36" style="mix-blend-mode: multiply;isolation: isolate">
      <g id="Group_1610" data-name="Group 1610">
        <g id="Group_1609" data-name="Group 1609" clip-path="url(#clip-path-4)">
          <path id="Path_5731" data-name="Path 5731" d="M1007.467,215.334l-1.776,22.9c-5.326,2.212-11.416,4.587-12.131,4.2-1.3-.709-1.319-4.859-1.319-4.859-1.924-.314-3.268-2.205-3.8-4.2s2.484-3.055,2.484-3.055a3.632,3.632,0,0,1-1.563-3.667c.384-2.521,3.431-2.941,3.431-2.941-2.38-1.366-1.3-4.411-.549-5.461s15.226-2.917,15.226-2.917" transform="translate(-988.374 -215.334)"/>
        </g>
      </g>
    </g>
    <path id="Path_5732" data-name="Path 5732" d="M1007.875,212.178s-7.169,2.4-11.764,2.761a3.678,3.678,0,0,0-2.384,1.091c-.733.773-1.189,1.95.22,3.444,2.646,2.806,13.228-.722,13.228-.722s-8.5,2.886-12.908,2.646-4.089,3.768-3.287,4.49,8.9,1.2,15.634-1.043c0,0-7.2,2.736-13.344,2.954a4.214,4.214,0,0,0-2.721,1.087c-.915.849-1.439,2.141.832,3.655,4.089,2.726,14.591-1.844,14.591-1.844s-5.759,2.95-9.981,3.459a2.849,2.849,0,0,0-2.011,1.2c-.589.862-.827,2.109,1.089,3.357,3.448,2.245,13.87-2.967,14.11-3.207s4.009-2,2.405-5.692c0,0,2.245-3.608.722-5.933,0,0,2.262-3.608.531-6.012,0,0,2.756-5.372.271-7.216,0,0,2.405-3.447,1.684-5.292s-6.414,0-6.414,0Z" transform="translate(1225.263 -383.029)" fill="#fff"/>
    <path id="Path_5733" data-name="Path 5733" d="M997.3,239.512a4.738,4.738,0,0,1-2.612-.626,3.39,3.39,0,0,1-1.653-2.056,2.4,2.4,0,0,1,.453-1.862,3.23,3.23,0,0,1,2.095-1.344,7.641,7.641,0,0,1-4.586-.914,3.4,3.4,0,0,1-1.786-2.351,2.373,2.373,0,0,1,.9-1.931,4.613,4.613,0,0,1,2.98-1.194,31.91,31.91,0,0,0,4.795-.582c-.559.035-1.054.053-1.471.063-2.472.059-5.246-.134-5.869-.694a3.2,3.2,0,0,1-.354-3.211c.333-.8,1.286-2.121,3.931-1.977a14.059,14.059,0,0,0,2.27-.094,4.5,4.5,0,0,1-2.9-1.154c-1.739-1.845-.884-3.294-.219-3.995a4.065,4.065,0,0,1,2.643-1.215,62.4,62.4,0,0,0,11.416-2.66l.5-6.815.256-.083a21.29,21.29,0,0,1,3-.707c2.218-.338,3.534-.021,3.911.942.672,1.716-.916,4.423-1.526,5.364,2,1.963.144,6.237-.341,7.256,1.408,2.25-.062,5.217-.526,6.042,1.226,2.211-.3,5.2-.741,5.966a4.066,4.066,0,0,1-.361,3.979,6.828,6.828,0,0,1-2.053,1.868c-.07.044-.149.094-.17.112l.015-.014a34.7,34.7,0,0,1-6.006,2.631,19.406,19.406,0,0,1-5.995,1.255m8.35-9.346.343.724c-.237.122-5.872,2.989-10.115,3.5a2.438,2.438,0,0,0-1.728,1.03,1.638,1.638,0,0,0-.328,1.254,2.659,2.659,0,0,0,1.3,1.541c1.3.845,3.981.616,7.761-.664a39.33,39.33,0,0,0,5.872-2.513,2.141,2.141,0,0,1,.267-.184c.817-.522,3.305-2.11,2.03-5.043l-.083-.193.111-.178c.021-.034,2.09-3.42.727-5.5l-.141-.215.136-.217c.021-.033,2.1-3.41.545-5.566l-.143-.2.111-.219c.026-.05,2.574-5.091.39-6.711l-.313-.231.223-.32c.635-.91,2.166-3.569,1.639-4.916-.388-.99-3.457-.521-5.661.154l-.5,6.809-.252.085c-.295.1-7.269,2.417-11.86,2.781a3.266,3.266,0,0,0-2.125.968c-.846.891-.774,1.838.221,2.893a4.814,4.814,0,0,0,3.443.954,34.916,34.916,0,0,0,9.367-1.781l.256.759c-.336.115-7.95,2.682-12.488,2.683-.2,0-.387,0-.571-.016-1.62-.088-2.708.425-3.148,1.484a2.5,2.5,0,0,0,.15,2.308c.248.2,2.13.567,5.359.487a35.492,35.492,0,0,0,9.88-1.611l.27.754c-.072.028-7.332,2.762-13.471,2.98a3.805,3.805,0,0,0-2.463.98,1.627,1.627,0,0,0-.651,1.278c.045.557.526,1.145,1.432,1.749,3.861,2.574,14.107-1.833,14.209-1.878m3.1,4.879-.015.015.015-.015" transform="translate(1225.429 -382.864)"/>
    <path id="Path_5734" data-name="Path 5734" d="M942.776,75.46s4.429-1.383,6.252-.481,2.918,3.007,2.032,4.69-8.753,2.252-8.753,2.252Z" transform="translate(1239.149 -345.031)" fill="#fff"/>
    <path id="Path_5735" data-name="Path 5735" d="M941.7,82.19l.522-7.2.26-.081c.188-.059,4.6-1.42,6.55-.458a4.727,4.727,0,0,1,2.39,2.683,3.232,3.232,0,0,1-.182,2.552c-.16.3-.646,1.228-5,1.967-2.072.352-4.063.5-4.082.5Zm1.282-6.59-.415,5.721c3.151-.269,7.451-1.027,7.965-2a2.446,2.446,0,0,0,.129-1.933,3.91,3.91,0,0,0-1.984-2.212c-1.287-.636-4.331.033-5.695.427" transform="translate(1239.327 -344.868)"/>
    <path id="Path_5736" data-name="Path 5736" d="M912.382,75.46s-4.429-1.383-6.253-.481-2.917,3.007-2.032,4.69,8.753,2.252,8.753,2.252Z" transform="translate(1250.419 -345.031)" fill="#fff"/>
    <path id="Path_5737" data-name="Path 5737" d="M913.118,82.19l-.462-.033c-.021,0-2.01-.148-4.083-.5-4.351-.739-4.836-1.662-5-1.966a3.227,3.227,0,0,1-.181-2.553,4.72,4.72,0,0,1,2.39-2.683c1.945-.961,6.362.4,6.549.458l.261.081Zm-5.455-7.279a3.556,3.556,0,0,0-1.522.263,3.9,3.9,0,0,0-1.984,2.212,2.445,2.445,0,0,0,.129,1.932c.513.976,4.814,1.735,7.964,2l-.415-5.721a17.057,17.057,0,0,0-4.173-.69" transform="translate(1250.586 -344.867)"/>
    <path id="Path_5738" data-name="Path 5738" d="M830.49,166.87c0-.541,140.161-2.165,140.161-2.165s-2.886,25.8-3.067,25.254-134.209,2.165-134.209,2.165Z" transform="translate(1271.864 -371.373)" fill="#fff"/>
    <path id="Path_5739" data-name="Path 5739" d="M832.854,192.364,829.924,166.7c0-.4.376-.425.774-.453.265-.019.664-.04,1.184-.061,1-.041,2.5-.086,4.455-.134,3.634-.091,8.977-.2,15.88-.319,11.626-.2,27.837-.443,48.182-.718,34.64-.468,69.731-.875,70.081-.879l.454-.006-.05.451c-.007.063-.715,6.382-1.442,12.623-.427,3.667-.777,6.59-1.041,8.687-.157,1.246-.285,2.213-.379,2.872-.052.357-.095.633-.129.818-.052.287-.1.582-.426.616a.4.4,0,0,1-.208-.033c-3.09-.344-88.841,1.279-134.04,2.192Zm-2.087-25.32,2.8,24.5c3.737-.076,35.387-.71,66.672-1.278,19.468-.353,34.988-.612,46.127-.769,6.615-.093,11.74-.151,15.231-.173,1.878-.011,3.321-.012,4.288,0,.5,0,.89.013,1.149.023l.088,0c.378-2.2,1.9-15.316,2.915-24.41-46.458.539-133.033,1.645-139.27,2.1m136.272,22.874v0" transform="translate(1272.03 -371.205)"/>
    <path id="Path_5740" data-name="Path 5740" d="M935.7,104.606c-4.423,4.037-11.246,6.708-19.984-.805l1.073-5.481h17.8Z" transform="translate(1246.928 -351.95)"/>
    <path id="Path_5741" data-name="Path 5741" d="M912.963,56.2s-3.608,28.682-2.525,31.568,14.663,7.882,26.878.9c2.525-1.442-2.706-34.634-2.706-34.634Z" transform="translate(1248.533 -338.994)" fill="#fff"/>
    <path id="Path_5742" data-name="Path 5742" d="M923.6,92.44a26.847,26.847,0,0,1-8.979-1.493c-2.548-.92-4.313-2.122-4.724-3.215-.175-.468-.709-1.892.833-17.048.759-7.45,1.661-14.639,1.67-14.711l.039-.317,22.341-2.234.059.374c.013.083,1.322,8.4,2.3,16.792.577,4.933.931,8.926,1.051,11.868.207,5.082-.311,6.079-.845,6.384a27.642,27.642,0,0,1-13.749,3.6M913.153,56.389c-1.022,8.18-3.356,28.8-2.509,31.06.261.7,1.676,1.816,4.246,2.743A26.026,26.026,0,0,0,923.6,91.64a26.834,26.834,0,0,0,13.35-3.5c.067-.039.651-.524.441-5.657-.119-2.922-.471-6.9-1.047-11.808-.862-7.364-1.975-14.675-2.239-16.386Z" transform="translate(1248.7 -338.814)"/>
    <path id="Path_5743" data-name="Path 5743" d="M911.27,51.951c-.241-.6.6-7.456,3.968-10.582s17.552-9.653,21.285,8.839l-12.113-.481Z" transform="translate(1248.241 -334.201)" fill="#60e99c"/>
    <path id="Path_5744" data-name="Path 5744" d="M907.721,60.936c-.06-.5.241-8.894,15.153-9.4S939.049,59.3,939.049,59.3a29.036,29.036,0,0,0-15.666-4.541c-9.088.2-15.662,6.181-15.662,6.181" transform="translate(1249.269 -338.256)" fill="#56cd93"/>
    <path id="Path_5745" data-name="Path 5745" d="M921.609,71.053l-4.447.765a1.63,1.63,0,1,1-.552-3.212l4.447-.765a1.63,1.63,0,1,1,.552,3.212" transform="translate(1247.063 -343.025)" fill="#010102"/>
    <path id="Path_5746" data-name="Path 5746" d="M934.555,71.053l4.447.765a1.63,1.63,0,1,0,.552-3.212l-4.447-.765a1.63,1.63,0,1,0-.552,3.212" transform="translate(1241.813 -343.025)" fill="#010102"/>
    <path id="Path_5747" data-name="Path 5747" d="M922.089,75.343c0,.681-.376,1.234-.84,1.234s-.841-.552-.841-1.234.376-1.234.841-1.234.84.552.84,1.234" transform="translate(1245.556 -344.866)" fill="#010102"/>
    <path id="Path_5748" data-name="Path 5748" d="M938.248,75.343c0,.681-.376,1.234-.84,1.234s-.841-.552-.841-1.234.376-1.234.841-1.234.84.552.84,1.234" transform="translate(1240.828 -344.866)" fill="#010102"/>
    <path id="Path_5749" data-name="Path 5749" d="M928.024,72.823s-1.838,5.514-1.47,6.406,3.309.735,3.728,0c0,0-2.835.257-2.889-.606s.631-5.8.631-5.8" transform="translate(1243.772 -344.49)" fill="#ddd"/>
    <path id="Path_5750" data-name="Path 5750" d="M921.9,85.761s7.876.259,10.764-.842c0,0-3.518,10.084-10.764.842" transform="translate(1245.12 -348.029)" fill="#ddd"/>
    <path id="Path_5751" data-name="Path 5751" d="M999.236,220.363l-.35,4.2s-2.24-.14-2.555-1.539,1.085-2.7,2.906-2.661" transform="translate(1223.356 -387.657)" fill="#fff"/>
    <path id="Path_5752" data-name="Path 5752" d="M994.614,229.42l-.49,3.64s-2,.175-2.136-1.051a2.5,2.5,0,0,1,2.625-2.59" transform="translate(1224.616 -390.307)" fill="#fff"/>
    <path id="Path_5753" data-name="Path 5753" d="M993.618,238.673c0,.14-.176,3.921-.176,3.921s-2.276-.7-2.24-1.961,2.416-1.96,2.416-1.96" transform="translate(1224.843 -393.014)" fill="#fff"/>
    <path id="Path_5754" data-name="Path 5754" d="M998.586,247.481c0,.175.8,3.746.8,3.746s-2.065-.035-2.415-1.365,1.61-2.38,1.61-2.38" transform="translate(1223.166 -395.591)" fill="#fff"/>
    <path id="Path_5755" data-name="Path 5755" d="M859.843,224.025c0,.158.316,3.886.316,3.886s2.677-.21,2.731-1.628-3.046-2.258-3.046-2.258" transform="translate(1263.276 -388.729)" fill="#fff"/>
    <path id="Path_5756" data-name="Path 5756" d="M864.149,233.215l.472,3.362s1.89.21,2.1-.735a2.346,2.346,0,0,0-2.572-2.627" transform="translate(1262.016 -391.408)" fill="#fff"/>
    <path id="Path_5757" data-name="Path 5757" d="M864.621,242.435l-.472,3.675s2.625.053,3.045-1.365-2.573-2.31-2.573-2.31" transform="translate(1262.016 -394.115)" fill="#fff"/>
    <path id="Path_5758" data-name="Path 5758" d="M858.794,254.164c-.25-.1,1.471-3.045,1.471-3.045s1.786.368,1.628,1.523a2.1,2.1,0,0,1-3.1,1.522" transform="translate(1263.59 -396.656)" fill="#fff"/>
    <g id="Group_1614" data-name="Group 1614" transform="translate(2110.821 -181.478)" opacity="0.37" style="mix-blend-mode: multiply;isolation: isolate">
      <g id="Group_1613" data-name="Group 1613">
        <g id="Group_1612" data-name="Group 1612" clip-path="url(#clip-path-5)">
          <path id="Path_5759" data-name="Path 5759" d="M842.459,202.347l123.14-2.035-.076.991Z" transform="translate(-842.459 -200.313)"/>
        </g>
      </g>
    </g>
  </g>
</svg>
