<svg xmlns="http://www.w3.org/2000/svg" width="23.992" height="24" viewBox="0 0 23.992 24">
  <g id="Layer_2" data-name="Layer 2" transform="translate(-929.705 -1583.67)">
    <path id="Path_6151" data-name="Path 6151" d="M949.083,1629.32H934.319a4.614,4.614,0,0,1-4.614-4.614v-12.919a.923.923,0,0,1,.923-.923h18.455a4.614,4.614,0,0,1,4.614,4.614v9.228A4.614,4.614,0,0,1,949.083,1629.32Zm-17.532-16.609v12a2.768,2.768,0,0,0,2.768,2.768h14.764a2.768,2.768,0,0,0,2.768-2.768v-9.228a2.768,2.768,0,0,0-2.768-2.768Z" transform="translate(0 -21.65)" fill="#fff"/>
    <path id="Path_6152" data-name="Path 6152" d="M950.928,1591.061a.923.923,0,0,1-.923-.923V1587.6a2.15,2.15,0,0,0-.72-1.726,1.791,1.791,0,0,0-1.541-.3L932.27,1589.1a.923.923,0,0,0-.72.923.923.923,0,1,1-1.845,0,2.769,2.769,0,0,1,2.15-2.722l15.484-3.516a3.6,3.6,0,0,1,3.1.655,4,4,0,0,1,1.412,3.165v2.537A.923.923,0,0,1,950.928,1591.061Z" transform="translate(0)" fill="#fff"/>
    <path id="Path_6153" data-name="Path 6153" d="M1003.213,1645.4h-6.459a3.691,3.691,0,0,1,0-7.382h6.459a.923.923,0,0,1,.923.923v5.537A.923.923,0,0,1,1003.213,1645.4Zm-6.459-5.536a1.845,1.845,0,0,0,0,3.691h5.536v-3.691Z" transform="translate(-50.44 -43.266)" fill="#fff"/>
  </g>
</svg>
