<svg xmlns="http://www.w3.org/2000/svg" width="52.31" height="45.772" viewBox="0 0 52.31 45.772">
  <g id="Group_1892" data-name="Group 1892" transform="translate(-1104.064 -2132.31)">
    <g id="Group_1881" data-name="Group 1881" transform="translate(1104.064 2142.118)">
      <g id="Group_1880" data-name="Group 1880" transform="translate(0 0)">
        <path id="Path_6397" data-name="Path 6397" d="M1154.74,2247.918a1.635,1.635,0,0,0-1.635,1.634V2261h-45.771V2241.38h17.981a1.635,1.635,0,1,0,0-3.27h-17.981v-6.539h17.981a1.635,1.635,0,1,0,0-3.27h-17.981a3.271,3.271,0,0,0-3.27,3.27V2261a3.271,3.271,0,0,0,3.27,3.27H1153.1a3.271,3.271,0,0,0,3.269-3.27v-11.443A1.635,1.635,0,0,0,1154.74,2247.918Z" transform="translate(-1104.064 -2228.302)" fill="#fff"/>
      </g>
    </g>
    <g id="Group_1883" data-name="Group 1883" transform="translate(1110.603 2161.733)">
      <g id="Group_1882" data-name="Group 1882" transform="translate(0 0)">
        <path id="Path_6398" data-name="Path 6398" d="M1176.237,2420.3H1169.7a1.634,1.634,0,1,0,0,3.269h6.538a1.634,1.634,0,1,0,0-3.269Z" transform="translate(-1168.064 -2420.302)" fill="#fff"/>
      </g>
    </g>
    <g id="Group_1885" data-name="Group 1885" transform="translate(1130.219 2132.31)">
      <g id="Group_1884" data-name="Group 1884" transform="translate(0 0)">
        <path id="Path_6399" data-name="Path 6399" d="M1385.228,2137.344l-11.443-4.9a1.664,1.664,0,0,0-1.292,0l-11.443,4.9a1.641,1.641,0,0,0-.987,1.5v6.539c0,8.993,3.325,14.25,12.263,19.4a1.641,1.641,0,0,0,1.628,0c8.938-5.136,12.263-10.393,12.263-19.4v-6.539A1.639,1.639,0,0,0,1385.228,2137.344Zm-2.279,8.043c0,7.549-2.5,11.7-9.808,16.085-7.31-4.391-9.808-8.545-9.808-16.085v-5.46l9.808-4.2,9.808,4.2Z" transform="translate(-1360.064 -2132.31)" fill="#fff"/>
      </g>
    </g>
    <g id="Group_1887" data-name="Group 1887" transform="translate(1136.759 2142.119)">
      <g id="Group_1886" data-name="Group 1886" transform="translate(0 0)">
        <path id="Path_6400" data-name="Path 6400" d="M1436.54,2228.677a1.645,1.645,0,0,0-2.3.254l-5.14,6.428-2.033-3.041a1.634,1.634,0,0,0-2.72,1.812l3.269,4.9a1.648,1.648,0,0,0,1.292.729h.069a1.635,1.635,0,0,0,1.278-.615l6.539-8.174A1.635,1.635,0,0,0,1436.54,2228.677Z" transform="translate(-1424.075 -2228.322)" fill="#fff"/>
      </g>
    </g>
  </g>
</svg>
