<svg id="Group_3123" data-name="Group 3123" xmlns="http://www.w3.org/2000/svg" width="50.883" height="50.889" viewBox="0 0 50.883 50.889">
  <circle id="Ellipse_237" data-name="Ellipse 237" cx="25.441" cy="25.441" r="25.441" transform="translate(0 0.006)" fill="#1b3149"/>
  <rect id="Rectangle_4569" data-name="Rectangle 4569" width="14.417" height="10.177" transform="translate(18.233 12.727)" fill="#fec632"/>
  <circle id="Ellipse_238" data-name="Ellipse 238" cx="14.205" cy="14.205" r="14.205" transform="translate(11.237 16.331)" fill="#ffde39"/>
  <circle id="Ellipse_239" data-name="Ellipse 239" cx="11.533" cy="11.533" r="11.533" transform="translate(13.908 19.003)" fill="#fec632"/>
  <path id="Path_7505" data-name="Path 7505" d="M604-324.058a11.546,11.546,0,0,1,11.534-11.533,11.478,11.478,0,0,1,10.092,5.979,11.563,11.563,0,0,0-10.473-6.742,11.546,11.546,0,0,0-11.533,11.533,11.294,11.294,0,0,0,1.442,5.555A11.467,11.467,0,0,1,604-324.058Z" transform="translate(-589.714 355.358)" fill="#f9a74e"/>
  <circle id="Ellipse_240" data-name="Ellipse 240" cx="9.583" cy="9.583" r="9.583" transform="translate(15.859 20.953)" fill="#ffde39"/>
  <rect id="Rectangle_4570" data-name="Rectangle 4570" width="14.417" height="1.272" transform="translate(18.233 14.423)" fill="#f9a74e"/>
  <path id="Path_7506" data-name="Path 7506" d="M623.051-313.77l2.926,1.526a.59.59,0,0,0,.848-.636l-.551-3.265,2.375-2.29a.6.6,0,0,0-.339-1.018l-3.265-.466-1.442-2.968a.6.6,0,0,0-1.06,0l-1.442,2.968-3.265.466a.612.612,0,0,0-.339,1.018l2.375,2.29-.551,3.265a.6.6,0,0,0,.848.636Z" transform="translate(-597.609 347.783)" fill="#fff"/>
  <path id="Path_7507" data-name="Path 7507" d="M603.322-378.363l5.3,10.346h12.721l-5.979-13.145A25.232,25.232,0,0,0,603.322-378.363Z" transform="translate(-589.541 381.168)" fill="#60e99c"/>
  <path id="Path_7508" data-name="Path 7508" d="M620.422-381.157l-6.1,11.908.636,1.23h11.449l.636-1.23L621.7-381.164C621.551-381.169,620.816-381.178,620.422-381.157Z" transform="translate(-595.877 381.17)" fill="#1b3149" opacity="0.36"/>
  <path id="Path_7509" data-name="Path 7509" d="M626.129-349.705H612.476a1.656,1.656,0,0,1-1.654-1.654v-.042a1.656,1.656,0,0,1,1.654-1.654h13.611a1.656,1.656,0,0,1,1.654,1.654v.042A1.62,1.62,0,0,1,626.129-349.705Z" transform="translate(-593.861 364.976)" fill="#ffde39"/>
  <path id="Path_7510" data-name="Path 7510" d="M614.2-349.249a.38.38,0,0,1-.382-.382v-.042a.38.38,0,0,1,.382-.382h13.611a.38.38,0,0,1,.382.382v.042a.38.38,0,0,1-.382.382Z" transform="translate(-595.589 363.248)" fill="#473080"/>
  <path id="Path_7511" data-name="Path 7511" d="M615.822-368.01h12.721l5.3-10.346a25.209,25.209,0,0,0-11.279-2.8Z" transform="translate(-596.741 381.161)" fill="#56cd93"/>
</svg>
