<svg id="FB" xmlns="http://www.w3.org/2000/svg" width="30.17" height="30.17" viewBox="0 0 30.17 30.17">
  <path id="Path_7470" data-name="Path 7470" d="M32.17-149.989v26.147a2.017,2.017,0,0,1-2.011,2.011h-7.04V-134.9h3.017v-4.023H23.119v-5.028a1.009,1.009,0,0,1,1.006-1.006h3.017v-4.023H23.069a3.981,3.981,0,0,0-3.972,3.972v6.084H16.079v4.023H19.1v13.074H4.011A2.017,2.017,0,0,1,2-123.841v-26.147A2.017,2.017,0,0,1,4.011-152H30.159A2.017,2.017,0,0,1,32.17-149.989Z" transform="translate(-2 152)" fill="#4267b2"/>
</svg>
