<svg xmlns="http://www.w3.org/2000/svg" width="26.021" height="26.021" viewBox="0 0 26.021 26.021">
  <g id="Layer_2" data-name="Layer 2" transform="translate(1228.491 -2309.726)">
    <g id="Group_1784" data-name="Group 1784" transform="translate(-1228.491 2309.726)">
      <path id="Path_6333" data-name="Path 6333" d="M-1215.48,2309.726a13.021,13.021,0,0,0-13.01,13.011,13.021,13.021,0,0,0,13.01,13.01,13.021,13.021,0,0,0,13.01-13.01A13.021,13.021,0,0,0-1215.48,2309.726Zm0,23.853a10.846,10.846,0,0,1-10.842-10.842,10.846,10.846,0,0,1,10.842-10.843,10.846,10.846,0,0,1,10.842,10.843A10.846,10.846,0,0,1-1215.48,2333.579Z" transform="translate(1228.491 -2309.726)" fill="#fff"/>
      <path id="Path_6334" data-name="Path 6334" d="M-1185.3,2333.141a4.333,4.333,0,0,0-5.031,2.841,1.069,1.069,0,0,0,.694,1.366,1.1,1.1,0,0,0,1.366-.716,2.2,2.2,0,0,1,2.472-1.388,2.172,2.172,0,0,1,1.518,2.385,2.126,2.126,0,0,1-2.255,1.67,1.077,1.077,0,0,0-.846.26,1.087,1.087,0,0,0-.369.824l-.022,3.383a1.074,1.074,0,0,0,1.084,1.084h0a1.074,1.074,0,0,0,1.084-1.084l.022-2.364a4.383,4.383,0,0,0,3.448-3.4A4.348,4.348,0,0,0-1185.3,2333.141Z" transform="translate(1199.246 -2327.612)" fill="#fff"/>
      <path id="Path_6335" data-name="Path 6335" d="M-1177.938,2388h-.022a1.117,1.117,0,0,0-1.084,1.084v.239a1.024,1.024,0,0,0,1.063,1h.022a1.156,1.156,0,0,0,1.084-1.127v-.174A1.041,1.041,0,0,0-1177.938,2388Z" transform="translate(1190.536 -2369.809)" fill="#fff"/>
    </g>
  </g>
</svg>
