<svg xmlns="http://www.w3.org/2000/svg" width="10.158" height="13.366" viewBox="0 0 10.158 13.366">
  <g id="Group_1853" data-name="Group 1853" transform="translate(769 -2480.707)">
    <path id="path5384" d="M-2449.029,2416.566v9.891a.8.8,0,0,1-.8.8h-8.554a.8.8,0,0,1-.8-.8V2414.7a.8.8,0,0,1,.8-.8h6.683" transform="translate(1690.187 66.814)" fill="#90a0b2"/>
    <path id="path5386" d="M-2376.929,2413.894v1.871a.8.8,0,0,0,.8.8h1.871Z" transform="translate(1615.414 66.813)" fill="#f1f1f1"/>
    <path id="path5388" d="M-2438.347,2475.581a.268.268,0,0,0-.271.264.268.268,0,0,0,.264.271h.007a.268.268,0,0,0,.271-.263.268.268,0,0,0-.264-.271Zm1.07,0a.268.268,0,0,0-.271.264.268.268,0,0,0,.263.271h4.815a.268.268,0,0,0,.271-.263.268.268,0,0,0-.264-.271h-4.814Z" transform="translate(1671.49 10.74)" fill="#f1f1f1" fill-rule="evenodd"/>
    <path id="path5390" d="M-2438.347,2487.332a.268.268,0,0,0-.271.264.268.268,0,0,0,.264.271h.007a.267.267,0,0,0,.271-.263.268.268,0,0,0-.264-.271Zm1.07,0a.268.268,0,0,0-.271.264.268.268,0,0,0,.263.271h4.815a.268.268,0,0,0,.271-.263.268.268,0,0,0-.264-.271h-4.814Z" transform="translate(1671.49 0.058)" fill="#f1f1f1" fill-rule="evenodd"/>
    <path id="path5392" d="M-2438.347,2499.083a.268.268,0,0,0-.271.263.267.267,0,0,0,.264.271h.007a.267.267,0,0,0,.271-.263.268.268,0,0,0-.264-.271Zm1.07,0a.268.268,0,0,0-.271.263.267.267,0,0,0,.263.271h4.815a.267.267,0,0,0,.271-.263.268.268,0,0,0-.264-.271h-4.814Z" transform="translate(1671.49 -10.624)" fill="#f1f1f1" fill-rule="evenodd"/>
  </g>
</svg>
