<svg xmlns="http://www.w3.org/2000/svg" width="30.17" height="30.17" viewBox="0 0 30.17 30.17">
  <g id="Group_3065" data-name="Group 3065" transform="translate(0)">
    <path id="Path_7471" data-name="Path 7471" d="M119.17-125.6a3.782,3.782,0,0,1-3.771,3.771H92.771A3.782,3.782,0,0,1,89-125.6v-22.627A3.782,3.782,0,0,1,92.771-152H115.4a3.782,3.782,0,0,1,3.771,3.771Z" transform="translate(-89 152)" fill="#9100eb"/>
    <g id="Group_3064" data-name="Group 3064" transform="translate(3.771 3.771)">
      <g id="Group_3061" data-name="Group 3061">
        <path id="Path_7472" data-name="Path 7472" d="M113-121.873H102.628A6.135,6.135,0,0,1,96.5-128v-10.371a6.135,6.135,0,0,1,6.128-6.129H113a6.135,6.135,0,0,1,6.129,6.129V-128A6.135,6.135,0,0,1,113-121.873Zm-10.371-20.742a4.247,4.247,0,0,0-4.242,4.243V-128a4.247,4.247,0,0,0,4.242,4.242H113A4.247,4.247,0,0,0,117.242-128v-10.371A4.248,4.248,0,0,0,113-142.614Z" transform="translate(-96.5 144.5)" fill="#fff"/>
      </g>
      <g id="Group_3062" data-name="Group 3062" transform="translate(5.657 5.657)">
        <path id="Path_7473" data-name="Path 7473" d="M113.407-121.936a5.663,5.663,0,0,1-5.657-5.657,5.663,5.663,0,0,1,5.657-5.657,5.663,5.663,0,0,1,5.657,5.657A5.663,5.663,0,0,1,113.407-121.936Zm0-9.428a3.776,3.776,0,0,0-3.771,3.771,3.776,3.776,0,0,0,3.771,3.771,3.776,3.776,0,0,0,3.771-3.771A3.776,3.776,0,0,0,113.407-131.364Z" transform="translate(-107.75 133.25)" fill="#fff"/>
      </g>
      <g id="Group_3063" data-name="Group 3063" transform="translate(16.028 4.007)">
        <circle id="Ellipse_224" data-name="Ellipse 224" cx="1.296" cy="1.296" r="1.296" fill="#fff"/>
      </g>
    </g>
  </g>
</svg>
