<svg id="Group_1890" data-name="Group 1890" xmlns="http://www.w3.org/2000/svg" width="14.382" height="18.361" viewBox="0 0 14.382 18.361">
  <path id="Path_2430" data-name="Path 2430" d="M7.191,18.361a34.5,34.5,0,0,0,3.856-3.818c2.213-2.681,3.335-5.155,3.335-7.353A7.191,7.191,0,0,0,0,7.191c0,2.2,1.122,4.672,3.335,7.353a34.5,34.5,0,0,0,3.856,3.818m0-14.483A3.312,3.312,0,1,1,3.878,7.191,3.316,3.316,0,0,1,7.191,3.878" fill="#90a0b2"/>
  <path id="Path_2431" data-name="Path 2431" d="M28.365,27.313a1.393,1.393,0,1,1-1.035,1.676,1.393,1.393,0,0,1,1.035-1.676" transform="translate(-21.495 -21.482)" fill="#90a0b2"/>
</svg>
