<svg xmlns="http://www.w3.org/2000/svg" xmlns:xlink="http://www.w3.org/1999/xlink" width="375" height="812" viewBox="0 0 375 812">
  <defs>
    <clipPath id="clip-path">
      <rect id="Rectangle_846" data-name="Rectangle 846" width="375" height="812" transform="translate(-650 -81)" fill="#fff"/>
    </clipPath>
  </defs>
  <g id="Mask_Group_2" data-name="Mask Group 2" transform="translate(650 81)" clip-path="url(#clip-path)">
    <rect id="Rectangle_586" data-name="Rectangle 586" width="375" height="817" transform="translate(-650 -86)" fill="#f1f1f1"/>
    <path id="Path_230" data-name="Path 230" d="M650.62,793.786,705.4,804.468,703.186,816.9h9.96l23.885-136.013L742.565,816.9h9.868l-1.844-45.859,25.084-.737,2.582,46.6h4.888l-2.582-46.688,37.534-1.013v-9.761l-30.894.829-2.4-16.484,33.292,1.013v-4.881l-34.03-1.013-4.611-31.954,20.1-22.1L818,696.542v-5.894l-15.124-9.577L818,664.4v-7.275l-39.563,43.65c-2.121-12.063-7.378-42.821-9.591-55.805l49.246,8.38v-9.945l-24.531-4.236,5.81-36.559c6.548,1.381,12.819,2.671,18.721,3.868V596.443l-14.018-2.855,14.018-17.773V559.884l-24.715,31.494-32-6.63,13.649-95.587L818,496.9V480.32l-4.519-.829L818,448.642V381.418l-4.98,34.072L767.28,404.44c2.305-12.063,8.392-44.018,10.7-56.173L818,355.818v-9.945l-25.822-4.881L812.56,230.211,818,231.224V214.556l-13.372-2.486,3.6-24.956L818,185.088v-4.973l-9.038,1.842,7.931-55.068,1.107.184V4.044L815.05,24.4l-30.617,1.842L783.05-.008h-4.888l1.476,26.613-26.006,1.565-1.2-28.179h-9.868l1.2,28.823-36.058,2.21L713.146-.008h-9.96L697.929,30.1l-54.41-14.458L646.378-.008h-16.6l-5.533,30.021L586.8,36.367,582.192-.008h-9.868l4.7,37.94L540.416,44.1,524.738,12.148C534.053,9.477,549.73,4.873,566.7-.008H531.563L520.4,3.215l-1.66-3.223h-18.26l3.781,7.735c-5.718,1.565-13.372,3.684-20.934,5.8-1.2-3.315-2.859-8.2-4.8-13.629h-5.164l5.257,14.918c-9.13,2.486-17.245,4.789-20.473,5.709l-23.609-7.367L436.114-.008h-4.98l-1.291,11.7-30.156-9.3.83-2.394H390.1L386.13,10.766,360.308-.008H351.27l-8.023,20.536-36.981-12.8q2.352-3.868,4.427-7.735H299.258a203.725,203.725,0,0,1-17.983,26.613L276.848-.008h-9.96l1.2,7.367L243.464,22l-13-22.009h-5.718l30.525,51.661c-.738.46-1.476,1.013-2.121,1.473-9.775,6.354-22.5,11.05-37.073,14.55L220.962-.008h-4.888l-4.98,68.881c-5.349,1.2-10.882,2.118-16.6,3.039L189.146-.008h-9.868L181.03,24.3,122.1,17.12,121.732-.008h-9.868l.369,16.023L98.677,14.358,84.106-.008H77.1L90.746,13.345,41.131,7.359l.922-7.367h-4.98l-.83,6.722L16.508,4.32l.646-4.328H.553L0,4.044V127.073l42.422,7.735L49.707,169.8,0,180.115v4.973l14.848-3.131,4.8,36.282L0,214.556v16.668l21.58,4.052L5.164,346.609,0,345.689v9.945l3.689.737L0,381.418v67.224l13.372-90.43,46.2,8.656L47.309,488.792,0,480.32V496.9l43.436,7.735L0,559.884v15.839l43.067-54.884-11.8,82.05L0,596.443V606.48c12.634,2.578,23.24,4.789,29.88,6.17L24.9,647.643,0,643.407v9.945l2.951.553L0,657.036v7.275l8.669-9.577,14.848,2.578-6.363,44.2L0,690.648v5.8l16.415,10.406-4.8,33.336L0,739.823V744.7l10.882.368-2.029,14L0,759.345v9.761l7.47-.184L.553,816.808H17.061l6.732-47.149,18.721,2.486-5.533,44.662h4.98l3.781-30.573L77.1,816.808h7.009L46.572,780.065l.922-7.275,63.54,8.472.83,35.546h9.868l-.83-34.256,56.439,7.551,1.937,26.705h9.868l-1.014-13.721,29.326-4.973L216.074,816.9h4.888l.369-5.617,3.32,5.617h5.718l-8.392-14.274.369-5.341,40.116-6.814,4.427,26.429h9.96l-13.833-82.879,69.9,5.341c-7.654,23.39-18.905,52.121-33.661,77.538h11.435a365.236,365.236,0,0,0,16.139-33.151l32.462,12.432L351.178,816.9h9.038l-3.228-1.381L373.311,773.8l29.88,7-13.1,36.006h10.421l24.9-68.329,13.557-1.658L431.134,816.9h4.98l3.135-27.995,22.225-6.078L473.463,816.9h5.164c-4.611-12.984-10.329-29.284-12.45-35.362l14.94-4.052L500.484,816.9h18.26l-8.3-16.944,65.108-20.167-3.6,25.416-40.393,11.6H566.7c1.845-.553,3.6-1.013,5.441-1.565l.184,1.565h9.868l-.553-4.328c20.012-5.8,39.747-11.511,51.552-15.01l-3.6,19.338h16.6Zm-8.853-42.36-51.275-7,5.164-36.19,52.382,8.933ZM532.116,687.517l3.5-19.891,54.5,10.222-2.767,19.062Zm53.857,19.062L583.76,722.05,547.7,716.893l3.6-16.115ZM404.021,687.241l-24.162-.645,3.689-20.812,20.473,9.853a38.68,38.68,0,0,0-.461,5.71A25.04,25.04,0,0,0,404.021,687.241Zm7.47,16.576a32.741,32.741,0,0,0,4.334,4.42l-18.444,24.219-17.43-29.56ZM410.2,660.536l-46.572-22.377,50.629-18.51,7.654,30.481A36.068,36.068,0,0,0,410.2,660.536ZM87.149,608.69l5.994-13.445,74.515-17.773-10.605,37.111Zm67.506,15.563-4.98,25.508-18.168-4.6,1.291-22.746ZM50.906,83.884c16.508,1.2,35.782,2.3,55.886,2.578l-.184,4.881L48.508,109.3Zm-20.1-11.6,5.533-31.033,53.4,6.722c-.553,5.8-2.029,20.351-2.767,27.995C65.569,75.135,46.018,73.754,30.8,72.281Zm126.62,65.382,6.363,56.45c-14.571,1.658-58.376,6.722-73.961,8.564l6.824-59.212ZM106.331,96.592l-1.568,36.282-12.358,1.2L80.97,131.953l-3.32-26.521Zm57.915,102.4,2.306,20.351-79.863,9.761,2.49-21.456Zm336.423-3.96-9.038,31.954-37.257,14.366c-5.441-15.194-9.775-30.113-12.173-39.137Zm-51.183-30.849,28.589-3.5,3.135,20.259-29.418,3.591ZM591.6,372.026l-34.583-8.1,17.245-53.871,29.7,5.525C601.835,325.521,596.579,349.556,591.6,372.026ZM608.844,316.4l36.52,6.815-47.771,44.57ZM282.658,327.639l56.531-5.341,6.179,24.5-67.69,2.026Zm0-42.637,51.736,18.049,2.4,9.577-49.892,4.7Zm257.2,78.827-9.222,28.823-40.3-15.931,10.79-26.982Zm-36.981-18.6,9.314-23.39c13.833,7.919,27.3,14.918,35.044,18.786l-5.9,18.51Zm-26.375,39.69L457.6,368.895l22.779-32.231,11.9,8.656Zm-1.937,4.789-.922,2.3-47.586,4.052-23.885-31.77,23.7-15.931Zm-53.3,8.288-40.208,23.114-9.222-36.375,26.283-17.589C402.453,372.946,416.471,391.548,421.266,397.994Zm-22.133-37.572c-2.029-2.578-5.9-7.459-8.669-10.958l19.828-14.273,11.62,9.853Zm-4.058,2.763-24.531,16.484-3.412-13.353L386.5,352.411Zm-26.467,75.328-43.252-12.8,32.462-29.744Zm-48.785-14.458-55.794-16.576L276.571,353.7l70.088-2.026,9.868,38.953ZM259.141,320l-7.654-64.737,21.856-3.223,8.669,65.75Zm-.461,9.853,18.813-1.75-9.038,38.769-18.629-5.986Zm8.669,41.808L259.326,406.1l-20.565-6.078,9.775-34.349ZM262,417.148l-26.56,72.2-19.735-8.2,20.381-71.736Zm4.7,1.381,25.545,7.551-10.974,32.783c-7.285-2.21-20.842-6.446-26.375-8.2ZM289.021,466.6c4.98,1.75,13.649,4.789,23.885,8.38l-16.139,36.927-21.949-2.578Zm1.476-4.7,11.066-33.059,37.9,11.235-9.13,35.73Zm53.673-20.351,27.113,8.1,11.251,44.478-47.586-16.668Zm38.087-15.471,20.934-12.064,10.237,36.467-26.744-6.814Zm25.361-14.642,18.075-10.406,46.018-3.96L447,458.864l-27.943-7.091Zm60.866,20.167,22.041,7.367-7.931,29.192-26.006-6.63Zm1.752-4.6,18.26-45.675,40.577,16.023-14.294,44.478Zm60.589,18.418,41.131,7.367-34.491,57.463L516.254,491Zm5.072-15.655,19.643-61.238,35.044,8.288c-3.5,16.115-6.732,30.665-8.208,37.664l-30.617,18.141Zm58.929-49.359,14.663,17.865-21.3,12.616Zm-44.543-49.175c-16.323-8.288-53.4-27.81-70.457-42.452a28.284,28.284,0,0,1-2.4-2.3l39.471-33.8,44.266,44.662ZM490.8,262.165,477.89,237.486l15.216-5.894L509.8,245.774Zm-3.873,3.315-15.4,13.261c-5.718-8.748-10.974-20.628-15.493-32.691l17.245-6.63Zm-13.464,30.757c7.562,6.538,18.629,13.813,30.156,20.628l-9.407,23.667-45.465-32.875,21.026-15.1A46.352,46.352,0,0,0,473.463,296.238Zm2.951,37.48L453.82,365.671l-39.378-33.336L444.506,310.7ZM416.471,318.8l-8.761-29.1,21.764-10.406,9.13,23.666Zm-10.237-33.888L399.225,261.7l15.4-20.9,13.1,33.8Zm1.844,39.874L364.642,356l-15.678-62.159,47.125-9.025Zm-60.4-35.638-18.444-73.21,44.358-5.433,21.026,69.526Zm-14.755,8.2-51-17.773L278.231,251.3l41.5-6.17Zm-81.985-46.965-2.951-24.5,64.832-7.92,5.718,22.469Zm-5.81-40.611-4.98-21.18L309.4,191.81l2.582,9.761Zm3.5,104.7L202.056,261.06l-1.937-29.284,38.087-4.7Zm-50.353-98.994-3.32-21c13.188-2.026,28.035-4.328,35.321-5.433l5.164,21.917Zm-3.043,16.852,1.844,27.534-20.658,2.026.738-27.258Zm3.412,32.231,49.246,56.45-73.224,6.907,1.568-61.238C182.875,266.125,194.771,264.928,198.644,264.559Zm49.523,66.3L207.774,472.769l-19.828-11.143L230.092,332.52ZM212.939,490.634l50.537,21.088-5.625,16.852-49.338-22.561Zm26.929.645,13.188-35.914,26.56,8.2-13,38.861Zm33.2,22.653,22.318,2.671-5.072,33.059-23.7-16.207Zm27.482,1.2,16.969-38.585c13.372,4.7,28.681,10.038,41.868,14.642l-14.848,75.6-18.813,7.183L294.739,552.7Zm74.7,50.372,8.3,29.744L348.6,609.8,332.642,581.8Zm-25.269-.829,14.11-71.92c8.023,2.763,15.032,5.249,20.012,7l11.989,47.333ZM389.45,454.444l54.595,13.905-14.11,18.6-30.156,8.564ZM449.3,469.73,500.853,482.9,443.4,512.091l-9.13-22.561Zm38-.46,7.839-28.823,18.167,6.078-8.761,27.166Zm27.3,26.889,46.11,41.716-3.412,6.538c-23.332-4.512-43.805-8.38-54.779-10.5Zm26.56,17.4,35.966-59.857,24.9,4.512-39.1,75.143Zm66.03-54.516,7.931,1.473-15.493,92c-12.45-2.394-25.176-4.881-37.35-7.183Zm2.767,61.975,40.393,9.669-4.888,30.665c-12.173-2.3-26.283-5.065-40.946-7.828Zm6.087,44.662,27.39,5.249-12.173,50.648-22.594-4.6Zm32.277,6.17,25.637,4.881-9.5,51.477L636.141,622.5Zm1.937-9.577,4.888-30.849,26.744,2.118L675.7,567.159C669.71,565.962,660.857,564.3,650.251,562.278Zm5.625-35.73,3.32-20.628L686.31,509.7l-3.5,19.062Zm4.058-25.508,4.98-31.586,27.759,4.973-5.626,30.389Zm-8.853,24.772-40.3-9.577L620,461.442l40.208,7.183ZM566.514,435.2l49.246-29.192,36.427,44.57ZM620,403.427,684,365.4,698.3,382.8,634.2,420.648Zm-6.271-7.643-16.877-20.628L650.8,324.969l26.929,32.875Zm39.009-106.914-38.364-5.065c1.2-7.275,2.306-14,2.859-17.5l37.9,7.643ZM652,293.751l-3.228,20.167-38.087-7.183c.738-4.42,1.844-11.235,2.951-18.141Zm-46.2,12.156-28.5-5.341,12.726-39.69,22.41,4.512Zm-41.223-19.062-40.208-40.611,31.447-26.982,26.1,13.353Zm-51-44.294-17.245-14.642,9.5-33.52,58.653-7.183a35.758,35.758,0,0,0,3.6,8.656Zm-22.594-62.8-7.746-49.819,33.292-5.157,7.839,50.924Zm-27.113,104.98-21.119,15.194L418.131,236.2l16.876-22.838C440.633,233.066,451.054,265.3,463.872,284.727Zm-66.4-28.823-14.018-46.5,48.877-5.986c.277,1.2.646,2.486,1.014,3.868Zm-7.746-63.817-15.77,1.934-26.836-43,42.7-6.63Zm-21.119,2.578-40.946,4.973,16.231-44.57Zm-48.785-2.118-21.949-84.628L344.723,124.4Zm-11.62-5.709-38.087-1.75L259.971,127.9l32.185-3.039Zm-43.16-2.026-26.006-1.2-12.265-52.582,28.22-2.671Zm-35.874-.553L194.126,189.6l-3.32-21,33.661-4.512Zm-35.782,31.862-17.061,2.118L174.021,197.7c3.781-.553,9.591-1.473,16.046-2.486Zm-19,121.74,50.353-4.789-25.637,78.459L172.73,400.757Zm23.24,78.366-14.294,43.834-11.989-1.934L172.73,406.1Zm-15.862,48.53L170.24,500.119l.922-37.111C174.667,463.56,179,464.3,181.768,464.757Zm4.611,1.658,20.012,11.235L185.18,552.241l-16.139-7.735.738-27.166ZM207.221,510.8l49.062,22.469-15.309,45.767-46.756-22.469Zm57.73,27.442,55.24,37.848-47.586,18.141-22.779-10.958Zm6.179,73.394,43.621,21-11.343,21.18-38.733-8.38Zm13.649-11.511,43.252-16.484,16.046,28.087-18.905,7.827Zm100.152-.092,6.363,22.838-33.753,12.34-26.467-12.8Zm-5.072-36.282,18.536-7.091,14.663,58.107-17.245,6.262ZM401.07,500.3l28.957-8.2,27.759,68.421L419.329,572.5Zm44.174,16.3,54.5-27.718L470.7,579.406Zm54.226,26.705,46.664,8.932-8.946,50.372-53.3-10.774Zm45.65,70.907,52.566,10.59-4.058,28.639L542.814,627.2Zm1.66-9.669,8.945-50.464,50.722,9.761-7.378,51.293Zm60.589,22.193L662.7,637.882l-5.441,29.652-54.226-10.682Zm61.6,67.04,23.7,3.039L685.3,734.482l-23.332-2.947Zm.922-4.788,10.882-59.12,24.254,4.144-11.343,58.015ZM682.529,620.2l7.378-40.242c7.654,1.565,20.289,4.236,35.228,7.275l-8.761,38.677Zm9.222-49.819,9.13-49.727,58.56,8.2-7.747,53.963Zm7.286-111.426-39.471-7.091-22.317-27.258,64.094-37.848,9.5,11.6Zm20.934-55.989,40.669,9.853c-2.305,11.419-8.115,40.979-10.974,55.252l-40.946-7.367Zm-6.64-17.128-48.14-58.844,57.546,10.774ZM658.367,315.76l9.683-60.225,68.7,9.945-12.265,62.712Zm36.888-66.211,5.625-40.242,45.188,8.472-7.47,38.032Zm3.32-57.371-18.536-3.5,5.9-33.336,18.721,2.026Zm-2.49,16.207c-1.568,11.235-4.334,31.218-5.625,40.426l-20.75-3.039,6.64-41.163Zm-25.73-21.456-35.413-6.63c0-.737.092-1.381.092-2.118a36.921,36.921,0,0,0-2.951-14.274l33.384-20.075,9.13,19.615Zm-3.781,15.931-10.605,66.211L591.6,256.18l13.741-42.821a35.835,35.835,0,0,0,24.808-17.312Zm-67.414-5.341a19.43,19.43,0,1,1,19.459-19.43A19.448,19.448,0,0,1,599.161,197.52Zm-10.7,14.734-5.072,15.655-23.609-12.063L574.077,203.6A36.534,36.534,0,0,0,588.463,212.254Zm-24.254-41.439-34.86,4.236-7.931-51.017,37.257-5.8,16.415,33.52A35.8,35.8,0,0,0,564.209,170.814Zm-88.993-49.543-2.49-19.523L543.92,88.3l10.144,20.72Zm-1.66,10.222,3.781,24.4-28.4,3.407-2.674-23.574ZM447,185.18l-52.289,6.354.092-47.885,46.664-7.275Zm-50.629-51.661,16.784-60.041,20.658,7.827-11.9,48.254Zm-5.349.829-41.961,6.538L378.476,60.4,408.54,71.728ZM346.383,119.8l-24.07-8.472,8.484-30.3,25.822,10.682ZM317.7,109.668l-21.3-7.551L286.07,62.335,326.278,79.1Zm-28.127,5.525-67.137,6.446L219.394,100l62.895-12.524ZM223.267,159.3l-33.292,4.42-4.611-28.731,31.54-3.039Zm-37.35,9.945,3.412,21.088-15.77,2.394-2.4-21.548Zm-15.4-2.855-3.32-29.652,13.28-1.289,4.611,28.915Zm-3.32,69.342-.738,26.982c-7.839.737-23.516,2.118-29.88,2.671l1.014-26.061ZM126.62,395.784l-.83,22.1c-5.533-.184-18.721-.645-24.254-.921l1.014-22.93Zm-22.225-11.327,24.254-39.137-1.568,40.7Zm21.211,38.308-1.014,26.245c-8.023-1.565-16.323-3.223-24.254-4.789l1.014-22.377Zm-1.383,31.218-4.058,32.875-25.637-6.63,5.164-31.033Zm-1.383,51.293,14.294,3.591-1.476,19.43-14.848-7.091Zm.646-4.881L129.11,454.9,141.1,457.3l-3.5,46.688ZM145.8,458.219l15.585,3.039-2.029,78.458L140.453,530.6Zm-16.323-8.2,1.014-26.982c6.363.368,23.424,1.381,31.816,1.842l-.83,31.4C155.024,455,142.943,452.6,129.478,450.024Zm1.2-31.862.83-22.009,31.447,2.21-.553,21.549Zm1.291-31.77,1.844-47.978,30.8-2.21-1.383,52.4ZM134,333.441l.738-19.246,30.433.829-.461,16.207Zm1.107-29.1,1.291-34.072,29.88-2.671-.922,37.572ZM88.256,245.405l44.543-5.433-1.014,25.692-45.557-.46ZM131.6,270.453l-1.291,33.7-47.863-1.2,3.32-32.875Zm-1.752,43.557-.83,21.272L113.34,360.515,80.786,319.351l.646-6.722Zm-19.182,51.016L98.861,384l-24.346-1.75,5.625-55.9Zm-13,28.731L95.449,443.3c-10.7-2.118-20.289-3.96-26.56-5.249L73.5,392.009Zm-31.447-93.1L46.479,297.9l9.775-56.081,15.585,2.947Zm2.121,142.367,26.56,5.249-9.407,55.989L63.264,493.581Zm25.453,41.992,25.822,6.722L116.291,519l-26.1-12.524ZM118.6,538.243l52.935,25.508-2.4,8.38-73.5,17.5Zm57.454,27.626,26.006,12.524-11.435,39.045-28.681-2.394ZM211,582.722l22.41,10.774L217,661.917l-28.22-2.947ZM249.919,670.3l-2.4,12.524-65.293-1.842,5.072-17.22Zm-28.035-7.92,16.046-66.763,24.07,11.6-11.159,58.2Zm41.868-12.064,69.535,15.01-2.49,19.891L257.481,683.1Zm44.635,4.6,10.79-20.075,24.162,11.6-8.577,14.181Zm29.972,9.3,9.5-15.563,30.986,14.918-4.058,22.838-39.1-1.105Zm100.89-2.3a19.43,19.43,0,1,1-19.459,19.43A19.448,19.448,0,0,1,439.249,661.917ZM449.025,647a34.352,34.352,0,0,0-9.775-1.381h-1.476L420.436,577.2l39.1-12.156,8.761,21.641Zm31.816-45.767,54.595,11.05-.83,4.789L468.3,660.536a38.175,38.175,0,0,0-4.8-5.433ZM533.407,623.7l-10.974,62.159-47.586-8.1a34.414,34.414,0,0,0-3.966-12.984Zm13.1,76.156-3.689,16.3L499.1,709.894l8.392-16.576ZM536.45,662.745l5.441-30.481,51,26.337-2.029,14.458ZM649.79,707.5l-52.75-9.024L602.3,661.64l53.949,10.59Zm25.084,80.945-22.5-4.42,8.761-47.7,23.24,2.947ZM707.06,794.8l-22.594-4.42,14.294-73.394,21.118,4.7Zm13.741-78-21.026-4.6,14.94-76.525,19.735,3.407Zm61.327,43.465-32,.921L749.3,740.1l25.914-28.547C776.779,722.694,780.56,749.123,782.128,760.266Zm-7.839-54.976L749.02,733.1l-3.781-92.272,18.444,3.131Zm15.4-104.611-5.9,36.835-62.526-10.682,8.669-38.585C748.467,592.115,769.862,596.535,789.69,600.679Zm-29.6-76.709-58.376-8.1,7.1-38.492,56.532,10.13Zm19.274-50.648-24.9-4.42,5.072-25.692,24.439,4.881Zm24.438,4.42-19.643-3.5,4.7-25.232,18.629,3.776Zm7.747-52.582-3.32,22.746-47.678-9.577,4.8-24.4Zm-49.062-22.009-40.67-9.853,10.513-53.779,40.854,7.643Zm24.9-63.172-53.212-9.945,8.853-45.491,52.566,10.59ZM814.4,29.368l-5.625,39.321-21.949-.368L784.8,31.21ZM786.554,78.174l20.75.368-11.159,77.63-16.784-.092Zm-7.562,82.787,16.508.092-6.917,48.07-13.833-2.578Zm-9.13,44.662-9.222-1.75L755.476,77.622l26.1.46Zm9.96-174.137,2.029,36.743-26.744-.46-1.383-34.625Zm-24.07,188.043,52.013,9.761-11.251,60.962-52.566-10.59Zm-4.98-17.5-47.309-8.84c1.844-10.682,4.98-28.915,6.086-35.269l39.655,4.236Zm-1.845-44.939-62.249-6.63,4.611-26.521,56.163-.553ZM706.875,36l37.073-2.3,1.476,36.467-44.543-.368Zm-6.824,38.677,45.557.368L747.36,118.6l-55.148.553ZM642.6,20.528l54.41,14.458-5.9,33.336L636.6,52.3ZM690.367,73.2l-12.911,73.3L636.049,57.178Zm-57.546.368,30.525,65.75-33.568,20.167a36.321,36.321,0,0,0-10.7-11.143Zm-9.591-38.4L603.4,142.728c-1.2-.092-2.306-.184-3.5-.276l-12.542-101.3Zm-45.557,7.643,12.542,100.744a2.173,2.173,0,0,1-.738.184L542.721,48.706ZM508.784,16.752l32.923,67.04-32.462,6.17-22.594-67.04Zm-26.929,7.459c4.7,13.813,18.721,55.621,22.5,66.579L472.08,96.868,463.5,29.276ZM465.44,122.837l-38.364,5.986,11.251-45.675L461.475,91.9ZM460.829,86.37l-46.111-17.5L425.6,45.115l31.447,11.419Zm-28.22-63.54,21.026,6.538L456.4,51.009l-29.05-10.5ZM396.274,11.6l31.632,9.761L422,41.063,410.2,67.032,380.135,55.613Zm-41.038-8.38L384.47,15.371,378.2,32.591l-30.341-10.5ZM344.723,31.394,374.787,41.8,358.279,87.107l-26.1-10.866Zm-43.805-15.1,39.194,13.537L327.569,74.4,284.41,56.534l-3.689-14.181A190.391,190.391,0,0,0,300.918,16.292Zm-54.964,9.945,23.055-13.721,3.966,23.759A123.415,123.415,0,0,1,259.326,48.8ZM258.5,61.414a107.05,107.05,0,0,0,14.2-11.05l8.392,32.415L218.749,95.211l-2.4-17.312C232.858,73.938,247.337,68.6,258.5,61.414Zm-46.941,17.4,6.087,43.281-65.293,6.262-3.228-42.268C170.886,84.989,192.373,82.779,211.555,78.819Zm-29.7-44.478,2.859,38.953A528.835,528.835,0,0,1,123.576,76.7l-1.2-49.543ZM144.142,86.186l3.32,42.544-37.718,3.591,1.937-45.768C122.377,86.646,133.26,86.554,144.142,86.186ZM97.386,24.027l15.124,1.842.461,20.075L95.08,43.734C95.633,39.313,96.74,29.828,97.386,24.027Zm15.77,26.89.646,25.692c-7.378-.092-14.755-.184-21.856-.46l2.674-27.626ZM15.124,13.989,92.59,23.382,90.285,43.089,12.358,33.328Zm-3.5,24.219,19.828,2.486L25.914,71.82c-7.839-.737-14.2-1.473-18.813-2.026Zm30.341,86.562L.277,117.127,5.718,79.556c8.392,1.013,22.594,2.578,40.3,3.96Zm5.9-10.222,24.992-7.735L75.9,130.94,46.756,125.6Zm-.277,21.272L86.78,143l-9.96,86.1-10.329-1.934ZM19.735,181.036l30.894-6.446,10.7,51.477L24.715,219.16Zm-4.98,167.415L31.171,237.117l20.289,3.776L32.093,351.674ZM36.981,352.6l8.761-49.912,20.1,2.855-5.164,51.477Zm24.07,157.93,48.693,23.39L76.82,607.769l-29.326-2.486ZM46.111,615.044l77,6.538-1.291,22.746-80.786,6.354ZM121.455,649.3,119.7,679.229l-20.1-.552V651.05ZM40.3,655.655l54.41-4.328V678.4l-57.454-1.566ZM69.35,765.884,25.269,759.99l6.64-46.228,41.684,5.709Zm-36.7-57,2.306-15.747,41.038,1.2-1.844,20.351Zm56.532,59.673-14.94-2.026,4.242-46.32,15.4,2.118Zm5.164-51.109-15.493-2.118,1.937-20.812,15.862.461Zm21.949,54.7-17.338-2.3,4.7-46.6,15.954.921Zm-12.173-53.779,2.4-23.206,64,1.842,1.844,25.232Zm17.061,54.424,3.412-48.346,48.139,2.763,3.873,53.042ZM172.085,680.7l-42.514-1.2,1.66-29.284,46.3,11.787ZM154.47,650.958l5.164-26.337,28.22,2.394L179,657.22Zm25.914,46.32,66.953,1.934,2.859,17.22-67.967,5.8Zm2.121,29.744,68.428-5.8,4.15,24.956-70.641,7.643Zm5.257,71.183-2.582-34.533,71.471-7.735,4.98,29.652Zm74.422-69.25L257.3,699.4l86.5,2.486c-1.844,7.459-4.98,18.878-9.314,32.6Zm98.953,62.527-32.37-12.34c2.029-4.881,3.966-9.669,5.718-14.458l34.03,8.011ZM337.9,755.478a540.045,540.045,0,0,0,15.954-53.319l20.289.553,19.92,33.888L373.4,763.765Zm68.7,16.115-28.035-6.538,19.182-25.232,17.706,7.275Zm10.605-29.1-16.323-6.722,18.721-24.587a32.9,32.9,0,0,0,7.654,3.776Zm10.144.921,9.591-26.337a18.546,18.546,0,0,0,2.306.092,35.707,35.707,0,0,0,11.343-1.842l11.62,23.574Zm12.45,40.242,4.15-37.48,20.473-2.671L478.9,772.974Zm39.84-46.32-15.124-30.757a35.461,35.461,0,0,0,9.96-18.97l28.035,4.789Zm28.589,58.107-8.576-17.4,28.589-8.2,4.611,17.865Zm68.059-21.088-38.733,11.971-4.611-17.773,46.018-13.168Zm4.242-29.56L495.32,769.107l-12.911-26.245L496.8,714.5l86.319,12.432Zm1.66,57.371,6.824-47.978,23.977,3.315-5.625,37.388ZM635.219,786.7l-22.594,6.538,5.349-35.27L640.015,761Z" transform="translate(-890.093 -145.9)" fill="#fff"/>
  </g>
</svg>
