<svg xmlns="http://www.w3.org/2000/svg" width="16.749" height="17.432" viewBox="0 0 16.749 17.432">
  <g id="mail" transform="translate(-18.494 -15.168)">
    <path id="Path_2411" data-name="Path 2411" d="M34.691,19.421a6.517,6.517,0,0,0-1.572-2.234A7.337,7.337,0,0,0,30.664,15.7a9.709,9.709,0,0,0-5.657-.215,8.8,8.8,0,0,0-2.155.91,8.623,8.623,0,0,0-1.8,1.425,8.709,8.709,0,0,0-1.377,1.866,9.373,9.373,0,0,0-.873,2.234,10.224,10.224,0,0,0-.3,2.518,8.9,8.9,0,0,0,.626,3.428,6.91,6.91,0,0,0,1.808,2.565,8.054,8.054,0,0,0,2.881,1.609,12.339,12.339,0,0,0,3.853.557,12.825,12.825,0,0,0,2.255-.184,9.2,9.2,0,0,0,1.313-.338.7.7,0,0,0,.424-.934h0a.7.7,0,0,0-.87-.4,8.67,8.67,0,0,1-1.1.281,11.1,11.1,0,0,1-2.04.174,10.673,10.673,0,0,1-3.233-.452A6.654,6.654,0,0,1,22,29.43a5.719,5.719,0,0,1-1.514-2.124,7.364,7.364,0,0,1-.526-2.865,8.408,8.408,0,0,1,.557-3.081,7.7,7.7,0,0,1,1.551-2.492A7.2,7.2,0,0,1,24.434,17.2a7.372,7.372,0,0,1,3.018-.61,7.294,7.294,0,0,1,2.529.426,6.079,6.079,0,0,1,2,1.177,5.405,5.405,0,0,1,1.309,1.782,5.326,5.326,0,0,1,.473,2.25,7.309,7.309,0,0,1-.279,2.1,5.082,5.082,0,0,1-.752,1.572,3.361,3.361,0,0,1-1.1.983,2.763,2.763,0,0,1-1.335.342.536.536,0,0,1-.441-.168.731.731,0,0,1-.137-.473,3.036,3.036,0,0,1,.068-.583c.046-.228.1-.527.163-.828l1.134-5.076a.815.815,0,0,0-.8-.993h0a.816.816,0,0,0-.8.638h0a.145.145,0,0,1-.239.076,3.429,3.429,0,0,0-.964-.631,3.692,3.692,0,0,0-1.5-.275,3.9,3.9,0,0,0-1.851.467,4.919,4.919,0,0,0-1.53,1.28,6.238,6.238,0,0,0-1.036,1.93A7.479,7.479,0,0,0,21.985,25a4.727,4.727,0,0,0,.242,1.572,3.4,3.4,0,0,0,.673,1.167,2.8,2.8,0,0,0,1.036.726,3.551,3.551,0,0,0,2.918-.142,4.324,4.324,0,0,0,1.255-.987.072.072,0,0,1,.124.036,1.547,1.547,0,0,0,.55.909,1.924,1.924,0,0,0,.573.315,2.088,2.088,0,0,0,.7.116,4.847,4.847,0,0,0,2.066-.442,4.68,4.68,0,0,0,1.645-1.277,6.076,6.076,0,0,0,1.083-2.045,8.946,8.946,0,0,0,.389-2.744A6.983,6.983,0,0,0,34.691,19.421Zm-6.314,5.02a4.62,4.62,0,0,1-.421,1.151,3.684,3.684,0,0,1-.636.873,2.635,2.635,0,0,1-.8.557,2.245,2.245,0,0,1-.915.194q-1.809,0-1.808-2.282a6.159,6.159,0,0,1,.247-1.766,5.412,5.412,0,0,1,.657-1.451,3.452,3.452,0,0,1,.951-.983,2,2,0,0,1,1.13-.363,2.875,2.875,0,0,1,1.356.294,3.2,3.2,0,0,1,.925.715Z" fill="#60e99c"/>
  </g>
</svg>
