<svg id="Group_1523" data-name="Group 1523" xmlns="http://www.w3.org/2000/svg" xmlns:xlink="http://www.w3.org/1999/xlink" width="26.021" height="26.021" viewBox="0 0 26.021 26.021">
  <defs>
    <clipPath id="clip-path">
      <rect id="Rectangle_2572" data-name="Rectangle 2572" width="26.021" height="26.021" fill="#fff"/>
    </clipPath>
  </defs>
  <g id="Group_1522" data-name="Group 1522" clip-path="url(#clip-path)">
    <path id="Path_6181" data-name="Path 6181" d="M59.57,54.4a5.174,5.174,0,1,0,5.174,5.174A5.175,5.175,0,0,0,59.57,54.4m0,7.746a2.572,2.572,0,1,1,2.572-2.572,2.575,2.575,0,0,1-2.572,2.572" transform="translate(-46.56 -46.56)" fill="#fff"/>
    <path id="Path_6182" data-name="Path 6182" d="M26.021,14.312v-2.6H23.329a10.331,10.331,0,0,0-2.1-5.074l1.9-1.9-1.84-1.84-1.9,1.9a10.34,10.34,0,0,0-5.074-2.1V0h-2.6V2.692A10.328,10.328,0,0,0,6.635,4.8l-1.9-1.9-1.84,1.84,1.9,1.9a10.342,10.342,0,0,0-2.1,5.074H0v2.6H2.692a10.33,10.33,0,0,0,2.1,5.074l-1.9,1.9,1.84,1.84,1.9-1.9a10.358,10.358,0,0,0,5.074,2.1v2.692h2.6V23.329a10.328,10.328,0,0,0,5.074-2.1l1.9,1.9,1.84-1.84-1.9-1.9a10.36,10.36,0,0,0,2.1-5.074ZM13.011,20.817a7.806,7.806,0,1,1,7.806-7.806,7.816,7.816,0,0,1-7.806,7.806" fill="#fff"/>
  </g>
</svg>
