<svg xmlns="http://www.w3.org/2000/svg" xmlns:xlink="http://www.w3.org/1999/xlink" width="299.069" height="171.648" viewBox="0 0 299.069 171.648">
  <defs>
    <linearGradient id="linear-gradient" y1="0.5" x2="1" y2="0.5" gradientUnits="objectBoundingBox">
      <stop offset="0" stop-color="#90a0b2"/>
      <stop offset="1" stop-color="#1b3149"/>
    </linearGradient>
  </defs>
  <g id="Group_1706" data-name="Group 1706" transform="translate(2281.79 -261.719)">
    <path id="Path_5870" data-name="Path 5870" d="M-2029.648,419.549c31.4-.631,54.6-30.146,47.011-60.618q-.188-.755-.4-1.515c-10.086-36.542-48.547-21.1-69.31-58.1s-102.588-57.811-136.026-8.892-82.211,40.4-87.728,75.2,14.265,58.161,76.907,57.14C-2154.323,422.033-2072.479,420.411-2029.648,419.549Z" transform="translate(-1.531 0)" opacity="0.12" fill="url(#linear-gradient)"/>
    <g id="Group_1705" data-name="Group 1705" transform="translate(-2251.361 302.791)">
      <path id="Path_5871" data-name="Path 5871" d="M-1862.639,440.8h0a2.386,2.386,0,0,1-2.379-2.378v-4.493a2.386,2.386,0,0,1,2.379-2.379h0a2.385,2.385,0,0,1,2.379,2.379v4.493A2.385,2.385,0,0,1-1862.639,440.8Z" transform="translate(2118.71 -356.845)" fill="#ffb600"/>
      <g id="Group_1700" data-name="Group 1700">
        <path id="Path_5872" data-name="Path 5872" d="M-1981.835,474.43h-240.2a3.194,3.194,0,0,1-3.185-3.185h0a3.194,3.194,0,0,1,3.185-3.185h240.2a3.194,3.194,0,0,1,3.184,3.185h0A3.194,3.194,0,0,1-1981.835,474.43Z" transform="translate(2233.354 -368.466)" fill="#001c39"/>
        <path id="Path_5873" data-name="Path 5873" d="M-1976.329,430.853l-245.244-5.253v33.1h245.244Z" transform="translate(2232.195 -354.951)" fill="#001c39"/>
        <g id="Group_1699" data-name="Group 1699" transform="translate(5.207)">
          <path id="Path_5874" data-name="Path 5874" d="M-2081.227,321.967H-2224.1a5.415,5.415,0,0,0-5.415,5.415V420.3a5.415,5.415,0,0,0,5.415,5.415h6.187a5.437,5.437,0,0,0,5.247-4.092c3-11.471,12.846-19.884,24.533-19.884s21.53,8.414,24.533,19.884a5.436,5.436,0,0,0,5.246,4.092h77.128a5.415,5.415,0,0,0,5.415-5.415V327.382A5.415,5.415,0,0,0-2081.227,321.967Z" transform="translate(2229.516 -321.967)" fill="#1b3149"/>
        </g>
        <path id="Path_5875" data-name="Path 5875" d="M-2000.028,339.624h36.532a6.208,6.208,0,0,1,5.362,3.079l19.994,34.24a6.219,6.219,0,0,0,1.658,1.852l28.161,20.934a6.209,6.209,0,0,1,2.505,4.983v16.506h-11.5s-6.729-14.58-25.235-14.58-25.515,17.437-26.637,24.7h-30.843Z" transform="translate(2161.681 -327.587)" fill="#fdfffd"/>
        <path id="Path_5876" data-name="Path 5876" d="M-1961.545,349.129h-25.393a1.879,1.879,0,0,0-1.879,1.879v29.6a1.879,1.879,0,0,0,1.879,1.878h41.573a1.878,1.878,0,0,0,1.648-2.779l-16.18-29.6A1.878,1.878,0,0,0-1961.545,349.129Z" transform="translate(2158.113 -330.612)" fill="#e3edff"/>
        <rect id="Rectangle_2700" data-name="Rectangle 2700" width="139.214" height="62.406" transform="translate(11.792 8.243)" fill="#90a0b2"/>
        <text id="DELIVERY" transform="translate(23.638 45.423) rotate(-0.123)" fill="#fcfcfc" font-size="27" font-family="SegoeUI, Segoe UI"><tspan x="0" y="0">DELIVERY</tspan></text>
        <path id="Path_5877" data-name="Path 5877" d="M-1905.816,433.306h-94.212v27.85h30.843s4.8-24.7,26.637-24.7c0,0,17.066-.878,25.235,14.58h11.5Z" transform="translate(2161.681 -357.404)" fill="#eceef0"/>
        <circle id="Ellipse_10" data-name="Ellipse 10" cx="19.943" cy="19.943" r="19.943" transform="translate(196.222 117.269) rotate(-76.885)" fill="#001c39"/>
        <circle id="Ellipse_11" data-name="Ellipse 11" cx="19.943" cy="19.943" r="19.943" transform="translate(19.06 102.371) rotate(-45)" fill="#001c39"/>
        <circle id="Ellipse_12" data-name="Ellipse 12" cx="11.603" cy="11.603" r="11.603" transform="translate(35.661 90.769)" fill="#e6e6e6"/>
        <circle id="Ellipse_13" data-name="Ellipse 13" cx="11.603" cy="11.603" r="11.603" transform="translate(208.568 90.769)" fill="#e6e6e6"/>
        <rect id="Rectangle_2701" data-name="Rectangle 2701" width="16.277" height="16.903" rx="4.821" transform="translate(246.566 89.061)" fill="#001c39"/>
        <rect id="Rectangle_2702" data-name="Rectangle 2702" width="16.277" height="16.903" rx="4.821" transform="translate(0 89.061)" fill="#001c39"/>
        <path id="Path_5878" data-name="Path 5878" d="M-1927.075,401.369h0a3.865,3.865,0,0,1-3.854-3.853v-11.01a3.865,3.865,0,0,1,3.854-3.854h0a3.865,3.865,0,0,1,3.854,3.854v11.01A3.865,3.865,0,0,1-1927.075,401.369Z" transform="translate(2139.688 -341.282)" fill="#1b3149"/>
      </g>
      <path id="Path_5879" data-name="Path 5879" d="M-1962.693,356.871s.927,1.762,3.165.187,4.689.834,2.993,2.462-3.511,2.238-5.785-.05c0,0-8.646,4.154-8.334,1.83S-1965.881,357.14-1962.693,356.871Z" transform="translate(2152.335 -332.973)" fill="#56cd93"/>
      <g id="Group_1701" data-name="Group 1701" transform="translate(182.357 24.599)">
        <path id="Path_5880" data-name="Path 5880" d="M-1967.656,379.5l.6-7.813s-1.058,1.23-1.917-.823.717-5.274,2.454-3.19c0,0,1.119-3.753,3.542-4.479,5.181-1.552,7.223,5.9,5.453,8.622a4.683,4.683,0,0,1-4.239,2.419l1.719,4.675Z" transform="translate(1969.517 -359.621)" fill="#ff9593"/>
        <path id="Path_5881" data-name="Path 5881" d="M-1956.6,366.1s1.636,3.6,1.427,3.791a10.643,10.643,0,0,1-2.1.455Z" transform="translate(1965.718 -360.611)" fill="#ff5151"/>
        <path id="Path_5882" data-name="Path 5882" d="M-1966.826,370.549a.613.613,0,0,0-.334-.417c-.289-.147-.813-.263-1.246.464a1.8,1.8,0,0,0,.356,2.332c.391.282,1.066-.447.777-.954s-.273-1.018.205-1.093A.252.252,0,0,0-1966.826,370.549Z" transform="translate(1969.348 -361.861)" fill="#ff8080"/>
        <path id="Path_5883" data-name="Path 5883" d="M-1960.758,367.224s-.708-.637.064-1.01,1.69-.716,1.985-.4S-1960.471,367.691-1960.758,367.224Z" transform="translate(1966.92 -360.483)" fill="#001c39"/>
        <path id="Path_5884" data-name="Path 5884" d="M-1953.763,365.214s.347.886-.383.835-1.566-.2-1.693-.612S-1953.835,364.676-1953.763,365.214Z" transform="translate(1965.262 -360.243)" fill="#001c39"/>
        <path id="Path_5885" data-name="Path 5885" d="M-1959.525,362.083s.511-.219.77.444-1.144,1.454-2,.805c0,0-.979,1.062-1.887.355,0,0-.845,1.517-1.739.791,0,0,.015,1.576-1.208,1.805,0,0,.283,1.24-.774,1.535l-.141-.742s-.963-.962-1.519-.549a3.682,3.682,0,0,0-.894,1.012s-.542-1.513-.016-2.293,1.671-.787,1.89-.391c0,0,2.29-2.666,3.625-3.133S-1960.377,360.448-1959.525,362.083Z" transform="translate(1969.5 -359.023)" fill="#001c39"/>
        <path id="Path_5886" data-name="Path 5886" d="M-1955.93,363.177a1.13,1.13,0,0,0,1.6-.014,1.13,1.13,0,0,0-.014-1.6,1.131,1.131,0,0,0-1.6.014A1.13,1.13,0,0,0-1955.93,363.177Z" transform="translate(1965.397 -359.066)" fill="#001c39"/>
        <path id="Path_5887" data-name="Path 5887" d="M-1956.764,363.568a1.131,1.131,0,0,0,1.6-.014,1.131,1.131,0,0,0-.014-1.6,1.13,1.13,0,0,0-1.6.014A1.13,1.13,0,0,0-1956.764,363.568Z" transform="translate(1965.662 -359.19)" fill="#001c39"/>
        <path id="Path_5888" data-name="Path 5888" d="M-1962.323,365.227a.889.889,0,0,0,1.257-.011.888.888,0,0,0-.011-1.256.888.888,0,0,0-1.256.011A.888.888,0,0,0-1962.323,365.227Z" transform="translate(1967.409 -359.851)" fill="#001c39"/>
        <path id="Path_5889" data-name="Path 5889" d="M-1959.1,363.806a.89.89,0,0,0,1.257-.011.889.889,0,0,0-.011-1.257.889.889,0,0,0-1.257.011A.889.889,0,0,0-1959.1,363.806Z" transform="translate(1966.382 -359.398)" fill="#001c39"/>
        <path id="Path_5890" data-name="Path 5890" d="M-1955.81,371.608a4.682,4.682,0,0,1-4.852,5.07l-5.386-2.8,2.194.582-.185-3.764-1.434-.627-.038-.2s5.689,2.225,9.56.629Z" transform="translate(1968.51 -361.811)" fill="#fcfcfc"/>
        <path id="Path_5891" data-name="Path 5891" d="M-1959.087,368.183c.031.269.181.472.334.455s.253-.25.222-.519-.181-.472-.334-.454S-1959.117,367.914-1959.087,368.183Z" transform="translate(1966.296 -361.11)" fill="#001c39"/>
        <path id="Path_5892" data-name="Path 5892" d="M-1954.792,367.348c.031.269.181.472.334.455s.253-.25.222-.519-.181-.472-.335-.454S-1954.822,367.079-1954.792,367.348Z" transform="translate(1964.929 -360.845)" fill="#001c39"/>
        <path id="Path_5893" data-name="Path 5893" d="M-1959.968,360.492s.319-2.565-2.107-2.436-2.383,2.078-2.383,2.078a3.748,3.748,0,0,0-4.186,0c-1.986,1.5-.445,4.14-.445,4.14l1.892.248,2.654-2.9Z" transform="translate(1969.659 -358.051)" fill="#001c39"/>
      </g>
      <path id="Path_5894" data-name="Path 5894" d="M-1974.77,389.355h-10.84V376.123a5.436,5.436,0,0,1,5.42-5.42h0a5.436,5.436,0,0,1,5.42,5.42v13.232Z" transform="translate(2157.093 -337.479)" fill="#001c39"/>
      <path id="Path_5895" data-name="Path 5895" d="M-1959.63,383.927a3.775,3.775,0,0,0-3.826-2.158,3.835,3.835,0,0,0-.405.078c-2.4.6-5.848,1.822-5.848,3.949v7.071h14.478Z" transform="translate(2152.031 -340.991)" fill="#56cd93"/>
      <path id="Path_5896" data-name="Path 5896" d="M-1959.356,392.88s-6.543-6.922-4.326-9.414,3.859-2.333,6.4,1.212,9.625,8.2,9.625,8.2Z" transform="translate(2150.259 -341.004)" fill="#60e99c"/>
      <g id="Group_1702" data-name="Group 1702" transform="translate(188.739 42.18)">
        <path id="Path_5897" data-name="Path 5897" d="M-1951.624,393.613c-6.082-2.865-8.648-9.646-8.674-9.715l.16-.059c.025.067,2.569,6.784,8.588,9.619Z" transform="translate(1960.297 -383.84)" fill="#a3efc2"/>
      </g>
      <path id="Path_5898" data-name="Path 5898" d="M-1970.967,360.531s-.963-3.852.666-5.51,5.99-1.768,7.171-1.528,1.59,3.214,1.59,3.214S-1968.234,358.327-1970.967,360.531Z" transform="translate(2152.522 -331.97)" fill="#60e99c"/>
      <g id="Group_1703" data-name="Group 1703" transform="translate(185.407 21.585)">
        <path id="Path_5899" data-name="Path 5899" d="M-1961.927,357.549c-.513-2.252-3.231-3.754-3.258-3.769l.081-.149c.115.062,2.813,1.552,3.343,3.882Z" transform="translate(1965.185 -353.63)" fill="#a3efc2"/>
      </g>
      <g id="Group_1704" data-name="Group 1704" transform="translate(183.452 21.64)">
        <path id="Path_5900" data-name="Path 5900" d="M-1967.856,359.358a6.1,6.1,0,0,1,1.526-5.648l.119.123a5.918,5.918,0,0,0-1.479,5.481Z" transform="translate(1968.053 -353.71)" fill="#a3efc2"/>
      </g>
      <path id="Path_5901" data-name="Path 5901" d="M-1958.2,355.273s-.93.3-.671.936,1.064.462,1.064.462A9.247,9.247,0,0,0-1958.2,355.273Z" transform="translate(2148.597 -332.568)" fill="#fcfcfc"/>
    </g>
    <path id="Path_5902" data-name="Path 5902" d="M-2090.484,290.541h30.966s1.032-10.382-6.423-12.589-9.036,2.152-9.036,2.152-1.63-8.945-12.066-8.085a10.7,10.7,0,0,0-10.437,10.494s-8.945-1.262-10.092,8.028Z" transform="translate(-55.45 -3.26)" fill="#90a0b2"/>
    <path id="Path_5903" data-name="Path 5903" d="M-2271.354,394h18.91s.631-6.34-3.922-7.688-5.519,1.314-5.519,1.314-1-5.462-7.369-4.937a6.53,6.53,0,0,0-6.374,6.407s-5.462-.77-6.163,4.9Z" transform="translate(0 -38.491)" fill="#90a0b2"/>
    <path id="Path_5904" data-name="Path 5904" d="M-1898.341,372.858h22.817s.761-7.65-4.733-9.275-6.658,1.586-6.658,1.586-1.2-6.591-8.891-5.958a7.88,7.88,0,0,0-7.691,7.732s-6.591-.93-7.437,5.915Z" transform="translate(-118.037 -31.016)" fill="#90a0b2"/>
  </g>
</svg>
