<svg id="Group_3128" data-name="Group 3128" xmlns="http://www.w3.org/2000/svg" xmlns:xlink="http://www.w3.org/1999/xlink" width="51.145" height="51.145" viewBox="0 0 51.145 51.145">
  <defs>
    <linearGradient id="linear-gradient" x1="0.5" y1="21.354" x2="0.5" y2="22.354" gradientUnits="objectBoundingBox">
      <stop offset="0" stop-color="#c3ffe8"/>
      <stop offset="0.997" stop-color="#f0fff4"/>
    </linearGradient>
    <linearGradient id="linear-gradient-2" x1="0.5" y1="17.449" x2="0.5" y2="18.449" gradientUnits="objectBoundingBox">
      <stop offset="0" stop-color="#51be8f"/>
      <stop offset="1" stop-color="#60e99c"/>
    </linearGradient>
  </defs>
  <circle id="Ellipse_241" data-name="Ellipse 241" cx="25.573" cy="25.573" r="25.573" fill="#1b3149"/>
  <g id="Group_3127" data-name="Group 3127" transform="translate(13.267 13.806)">
    <path id="Path_7512" data-name="Path 7512" d="M398.33-258.306a1.626,1.626,0,0,1-.591-.111,18.635,18.635,0,0,1-5.443-3.242,10.3,10.3,0,0,1-3.781-7.906v-7.528a1.64,1.64,0,0,1,.815-1.415,4.962,4.962,0,0,0,1.8-1.8,1.64,1.64,0,0,1,1.415-.815h11.567a1.64,1.64,0,0,1,1.415.815,4.963,4.963,0,0,0,1.8,1.8,1.64,1.64,0,0,1,.815,1.415v7.528a10.305,10.305,0,0,1-3.769,7.91,18.511,18.511,0,0,1-5.453,3.24,1.628,1.628,0,0,1-.588.109Z" transform="translate(-386.063 283.575)" fill="url(#linear-gradient)"/>
    <g id="Group_3126" data-name="Group 3126" transform="translate(0 0)">
      <g id="Group_3125" data-name="Group 3125">
        <path id="Path_7513" data-name="Path 7513" d="M404.59-285.49a2.456,2.456,0,0,1-2.453-2.453.818.818,0,0,0-.818-.818H384.965a.818.818,0,0,0-.818.818,2.456,2.456,0,0,1-2.453,2.453.818.818,0,0,0-.818.818v9.921a12.144,12.144,0,0,0,1.916,6.623,15.581,15.581,0,0,0,4.15,4.263,19.727,19.727,0,0,0,6.2,3.014,19.7,19.7,0,0,0,6.2-3.014,15.586,15.586,0,0,0,4.15-4.263,12.144,12.144,0,0,0,1.916-6.623v-9.921A.818.818,0,0,0,404.59-285.49Zm-2.453,10.739a9.519,9.519,0,0,1-3.494,7.3,17.677,17.677,0,0,1-5.2,3.088.818.818,0,0,1-.59,0,17.8,17.8,0,0,1-5.2-3.091,9.519,9.519,0,0,1-3.506-7.295v-7.528a.817.817,0,0,1,.408-.707,5.785,5.785,0,0,0,2.1-2.1.818.818,0,0,1,.707-.408h11.567a.818.818,0,0,1,.707.408,5.782,5.782,0,0,0,2.1,2.1.817.817,0,0,1,.407.707Zm-8.994-6.542a5.73,5.73,0,0,0-5.724,5.724,5.73,5.73,0,0,0,5.724,5.724,5.73,5.73,0,0,0,5.724-5.724A5.73,5.73,0,0,0,393.142-281.293Zm2.377,5.076-2.453,2.453a.818.818,0,0,1-1.156,0l-1.226-1.227a.817.817,0,0,1,0-1.156.818.818,0,0,1,1.156,0l.648.648,1.875-1.875a.817.817,0,0,1,1.156,0A.817.817,0,0,1,395.519-276.217Z" transform="translate(-380.877 288.761)" fill="url(#linear-gradient-2)"/>
      </g>
    </g>
  </g>
</svg>
