<svg xmlns="http://www.w3.org/2000/svg" width="26.021" height="26.021" viewBox="0 0 26.021 26.021">
  <path id="Path_6396" data-name="Path 6396" d="M191.167,311.74a13.01,13.01,0,1,1,13.01-13.01A13.011,13.011,0,0,1,191.167,311.74Zm7.207-3.717c-.1-.143-.22-.321-.319-.459-.171-.244-.343-.488-.5-.73-.007-.011-.856-1.15-3.914-1.289a1.81,1.81,0,0,1-1.839-1.9l-.02-.579c0-.084-.01.092,0,0v-.619l.62-.62a8.952,8.952,0,0,0,1.484-.907l.084-.058a2.876,2.876,0,0,0,.911-.894l.022-.236a34.691,34.691,0,0,0,.6-4.1c0-2.918-1.419-4.337-4.337-4.337-2.958,0-4.337,1.378-4.337,4.337a33.9,33.9,0,0,0,.6,4.1l.022.218a2.465,2.465,0,0,0,.9.906l.061.038a11.907,11.907,0,0,0,1.521.934l.62.62v.619c.008.085,0-.09,0,0l-.021.579a1.8,1.8,0,0,1-1.786,1.9h0c-3.071.124-3.961,1.287-3.962,1.287-.156.245-.327.489-.5.733-.1.139-.22.316-.318.459a11.72,11.72,0,0,0,14.415,0Zm-7.207-21.064a11.763,11.763,0,0,0-8.147,20.255c.237-.35.49-.7.713-1.049,0,0,1.035-1.7,4.956-1.859.4,0,.6-.262.6-.66h0c0-.323,0-.579,0-.579,0-.081-.013-.153-.017-.231a10.793,10.793,0,0,1-1.573-.926s-1.487-.914-1.487-1.941a37.258,37.258,0,0,1-.62-4.337c0-2.877,1.23-5.576,5.576-5.576,4.287,0,5.576,2.7,5.576,5.576a38.261,38.261,0,0,1-.62,4.337c0,1-1.487,1.941-1.487,1.941a8.579,8.579,0,0,1-1.576.958c0,.067-.014.129-.014.2,0,0,0,.256,0,.579h0c0,.4.2.66.6.66,3.98.178,4.956,1.859,4.956,1.859.223.35.475.7.712,1.049a11.762,11.762,0,0,0-8.146-20.255Z" transform="translate(-178.157 -285.719)" fill="#fff" fill-rule="evenodd"/>
</svg>
