<?xml version="1.0" encoding="utf-8"?>
<!-- Generator: Adobe Illustrator 24.0.1, SVG Export Plug-In . SVG Version: 6.00 Build 0)  -->
<svg version="1.1" id="Layer_1" xmlns="http://www.w3.org/2000/svg" xmlns:xlink="http://www.w3.org/1999/xlink" x="0px" y="0px"
	 viewBox="0 0 300 300" style="enable-background:new 0 0 300 300;" xml:space="preserve">
<style type="text/css">
	.st0{fill:#5BDB98;}
</style>
<g>
	<path class="st0" d="M150,130.43c-36.02,0-65.22-29.2-65.22-65.22S113.98,0,150,0s65.22,29.2,65.22,65.22S186.02,130.43,150,130.43
		z M150,26.09c-21.61,0-39.13,17.52-39.13,39.13s17.52,39.13,39.13,39.13s39.13-17.52,39.13-39.13S171.61,26.09,150,26.09z"/>
	<path class="st0" d="M267.39,300H32.61c-7.2,0-13.04-5.84-13.04-13.04v-39.13c0-57.63,46.72-104.35,104.35-104.35h52.17
		c57.63,0,104.35,46.72,104.35,104.35v39.13C280.43,294.16,274.6,300,267.39,300z M45.65,273.91h208.7v-26.09
		c0-43.22-35.04-78.26-78.26-78.26h-52.17c-43.22,0-78.26,35.04-78.26,78.26V273.91z"/>
</g>
</svg>
