<svg xmlns="http://www.w3.org/2000/svg" width="26.021" height="26.021" viewBox="0 0 26.021 26.021">
  <path id="Path_6401" data-name="Path 6401" d="M1394,405.565c.086,0,.172.005.259.005s.161,0,.241,0a11.193,11.193,0,0,1,5.192,1.4,1.016,1.016,0,1,0,.989-1.776,13.118,13.118,0,0,0-2.284-1,6.912,6.912,0,1,0-8.273,0,13.218,13.218,0,0,0-8.81,9.85,3.088,3.088,0,0,0,3.018,3.724h7.944a1.016,1.016,0,0,0,0-2.033h-7.944a1.033,1.033,0,0,1-.813-.387,1.063,1.063,0,0,1-.215-.891A11.23,11.23,0,0,1,1394,405.565Zm-4.62-6.907a4.879,4.879,0,1,1,5.121,4.873l-.242,0-.238,0A4.885,4.885,0,0,1,1389.378,398.658Zm17.89,11.985a2.513,2.513,0,0,1-.747,1.8l-1.891,1.88a1.016,1.016,0,1,1-1.434-1.441l1.267-1.26h-5.76a2.058,2.058,0,0,0-.025,4.115,1.016,1.016,0,1,1,0,2.033,4.026,4.026,0,0,1-2.884-1.2,4.1,4.1,0,0,1,2.909-6.979h5.667l-1.172-1.159a1.017,1.017,0,0,1,1.43-1.445l1.888,1.866A2.513,2.513,0,0,1,1407.268,410.643Z" transform="translate(-1381.247 -391.746)" fill="#fff"/>
</svg>
