<svg id="Group_3121" data-name="Group 3121" xmlns="http://www.w3.org/2000/svg" xmlns:xlink="http://www.w3.org/1999/xlink" width="51.145" height="51.145" viewBox="0 0 51.145 51.145">
  <defs>
    <clipPath id="clip-path">
      <circle id="Ellipse_236" data-name="Ellipse 236" cx="18.87" cy="18.87" r="18.87" fill="none"/>
    </clipPath>
  </defs>
  <circle id="Ellipse_235" data-name="Ellipse 235" cx="25.573" cy="25.573" r="25.573" fill="#1b3149"/>
  <g id="Group_3120" data-name="Group 3120" transform="translate(6.702 6.702)">
    <g id="Group_3119" data-name="Group 3119" transform="translate(0 0)" clip-path="url(#clip-path)">
      <g id="Group_3118" data-name="Group 3118" transform="translate(2.2 3.828)">
        <path id="Path_7493" data-name="Path 7493" d="M811.1-329.652a1.551,1.551,0,0,1,1.539,1.57l-.106,8.889a3.714,3.714,0,0,1-.935,2.421l-5.955,6.716a1.871,1.871,0,0,0-.472,1.254l.021,2.292h-6.564l-1.215-6.651a4.715,4.715,0,0,1,1.113-4.021c.039-.043.081-.086.122-.13l5.629-5.765a1.294,1.294,0,0,1,.93-.391,1.3,1.3,0,0,1,.949.411,1.3,1.3,0,0,1,.013,1.761l-3.389,3.737a1.2,1.2,0,0,0-.312.809,1.2,1.2,0,0,0,.461.947,1.2,1.2,0,0,0,1.63-.131l3.922-4.267a2.282,2.282,0,0,0,.595-1.38l.467-6.627a1.552,1.552,0,0,1,1.547-1.442Z" transform="translate(-779.297 340.376)" fill="#ffd3ae"/>
        <path id="Path_7494" data-name="Path 7494" d="M800.464-304.113a4.715,4.715,0,0,0-1.112,4.021l1.215,6.651h-1.938l-1.215-6.651a4.715,4.715,0,0,1,1.113-4.021c.039-.043.081-.086.122-.13l5.629-5.765a1.294,1.294,0,0,1,.93-.391,1.3,1.3,0,0,1,.95.411.158.158,0,0,1,.019.022l-5.588,5.724C800.545-304.2,800.5-304.157,800.464-304.113Z" transform="translate(-779.297 327.306)" fill="#e5b48f"/>
        <path id="Path_7495" data-name="Path 7495" d="M755.281-317.183a4.718,4.718,0,0,1,1.112,4.021l-1.214,6.651h-6.565l.021-2.292a1.87,1.87,0,0,0-.471-1.254l-5.955-6.716a3.717,3.717,0,0,1-.936-2.421l-.106-8.889a1.55,1.55,0,0,1,1.538-1.57h.011a1.552,1.552,0,0,1,1.547,1.442l.468,6.627a2.278,2.278,0,0,0,.595,1.38l3.922,4.267a1.2,1.2,0,0,0,1.63.131,1.2,1.2,0,0,0,.461-.947,1.2,1.2,0,0,0-.312-.809l-3.389-3.737a1.3,1.3,0,0,1,.014-1.761,1.293,1.293,0,0,1,.949-.411,1.293,1.293,0,0,1,.93.391l5.629,5.765C755.2-317.27,755.241-317.227,755.281-317.183Z" transform="translate(-741.168 340.376)" fill="#ffd3ae"/>
        <path id="Path_7496" data-name="Path 7496" d="M750.354-310.264,744.4-316.98a3.718,3.718,0,0,1-.936-2.421l-.745-10.458c-.005-.435.809.739,1.094.454a1.546,1.546,0,0,0-1.094-.454h-.011a1.55,1.55,0,0,0-1.538,1.57l.106,8.889a3.717,3.717,0,0,0,.936,2.421l5.955,6.716a1.868,1.868,0,0,1,.471,1.254l-.021,2.292H750.8l.021-2.292A1.868,1.868,0,0,0,750.354-310.264Z" transform="translate(-741.168 340.583)" fill="#e5b48f"/>
        <path id="Path_7497" data-name="Path 7497" d="M776.943-358.7l1.425,2.887a1.429,1.429,0,0,0,1.076.782l3.185.463a1.43,1.43,0,0,1,.792,2.438l-2.3,2.247a1.429,1.429,0,0,0-.411,1.265l.544,3.172a1.43,1.43,0,0,1-2.074,1.507l-2.849-1.5a1.431,1.431,0,0,0-1.33,0l-2.849,1.5a1.43,1.43,0,0,1-2.074-1.507l.544-3.172a1.429,1.429,0,0,0-.411-1.265l-2.3-2.247a1.429,1.429,0,0,1,.792-2.438l3.185-.463a1.429,1.429,0,0,0,1.076-.782l1.424-2.887A1.429,1.429,0,0,1,776.943-358.7Z" transform="translate(-759.022 360.635)" fill="#e8a328"/>
        <g id="Group_3117" data-name="Group 3117" transform="translate(2.174)">
          <path id="Path_7498" data-name="Path 7498" d="M781.143-352.015l1.052,2.131a1.055,1.055,0,0,0,.794.577l2.351.342a1.055,1.055,0,0,1,.584,1.8l-1.7,1.659a1.054,1.054,0,0,0-.3.934l.4,2.342a1.055,1.055,0,0,1-1.531,1.112l-2.1-1.106a1.057,1.057,0,0,0-.982,0l-2.1,1.106a1.055,1.055,0,0,1-1.531-1.112l.4-2.342a1.053,1.053,0,0,0-.3-.934l-1.7-1.659a1.055,1.055,0,0,1,.585-1.8l2.351-.342a1.056,1.056,0,0,0,.794-.577l1.051-2.131A1.055,1.055,0,0,1,781.143-352.015Z" transform="translate(-765.732 355.957)" fill="#ffbf3e"/>
          <path id="Path_7499" data-name="Path 7499" d="M818.613-359.149a.514.514,0,0,1-.2-.041.511.511,0,0,1-.27-.67l1.225-2.877a.511.511,0,0,1,.67-.27.511.511,0,0,1,.27.67l-1.225,2.877A.511.511,0,0,1,818.613-359.149Z" transform="translate(-795.57 363.048)" fill="#ffbf3e"/>
          <path id="Path_7500" data-name="Path 7500" d="M825.608-348.018a.511.511,0,0,1-.485-.352.51.51,0,0,1,.327-.644l3.131-1.021a.51.51,0,0,1,.644.327.51.51,0,0,1-.328.643l-3.131,1.021A.511.511,0,0,1,825.608-348.018Z" transform="translate(-800.319 354.231)" fill="#ffbf3e"/>
          <path id="Path_7501" data-name="Path 7501" d="M826.023-334.3a.515.515,0,0,1-.171-.03l-2.11-.749a.51.51,0,0,1-.31-.652.51.51,0,0,1,.651-.311l2.11.749a.51.51,0,0,1,.31.652A.51.51,0,0,1,826.023-334.3Z" transform="translate(-799.168 344.733)" fill="#ffbf3e"/>
          <path id="Path_7502" data-name="Path 7502" d="M762.6-359.149a.511.511,0,0,1-.47-.311l-1.225-2.877a.51.51,0,0,1,.27-.67.51.51,0,0,1,.67.27l1.225,2.877a.511.511,0,0,1-.27.67A.514.514,0,0,1,762.6-359.149Z" transform="translate(-756.715 363.048)" fill="#ffbf3e"/>
          <path id="Path_7503" data-name="Path 7503" d="M751.578-348.018a.516.516,0,0,1-.159-.025l-3.131-1.021a.511.511,0,0,1-.327-.643.51.51,0,0,1,.644-.327l3.131,1.021a.51.51,0,0,1,.327.644A.51.51,0,0,1,751.578-348.018Z" transform="translate(-747.936 354.231)" fill="#ffbf3e"/>
          <path id="Path_7504" data-name="Path 7504" d="M753.323-334.3a.51.51,0,0,1-.481-.34.51.51,0,0,1,.311-.652l2.11-.749a.511.511,0,0,1,.652.311.51.51,0,0,1-.311.652l-2.11.749A.513.513,0,0,1,753.323-334.3Z" transform="translate(-751.246 344.733)" fill="#ffbf3e"/>
        </g>
      </g>
    </g>
  </g>
</svg>
