<svg xmlns="http://www.w3.org/2000/svg" xmlns:xlink="http://www.w3.org/1999/xlink" width="251.374" height="171.136" viewBox="0 0 251.374 171.136">
  <defs>
    <clipPath id="clip-path">
      <rect id="Rectangle_2737" data-name="Rectangle 2737" width="251.374" height="171.136" transform="translate(-1923.57 851.596)" fill="none"/>
    </clipPath>
    <clipPath id="clip-path-3">
      <path id="Path_6144" data-name="Path 6144" d="M-1893.572,1019.07c-19.31-11.376-21.611-41.569-3.086-56.967,24.829-20.639,3.7-38.836,3.086-57.67-.584-17.849,8.428-39.222,49.523-36.577s71.681,33.9,124.541,11.147c36.337-15.641,56.718,24.813,43.027,59.658s-23.689,37.985-18.479,60.893-22.862,22.853-30.2,23.161-168.412-3.645-168.412-3.645" fill="none"/>
    </clipPath>
    <clipPath id="clip-path-4">
      <path id="Path_6145" data-name="Path 6145" d="M-1875.726,1008.172c-.3,1.5-1.525,5.037-1.173,6.752,1.539,1.3,4.831,1.39,7.3.767s4.206.643,7.3.825c3.041.179,5.576-.667,6.2-1.94.676-1.389-4.633-2.464-8.254-3.575a16.487,16.487,0,0,1-6.141-3.241Z" fill="none"/>
    </clipPath>
    <clipPath id="clip-path-6">
      <path id="Path_6146" data-name="Path 6146" d="M-1914.47,997.255c-.516,1.948.814,4.961,2.435,6.925s1.222,4.075,2.386,6.952c1.143,2.823,2.993,4.751,4.41,4.766,1.545.016.239-5.243-.307-8.989a16.469,16.469,0,0,1,.3-6.937l-2.615-4.552c-1.485.374-5.2.784-6.6,1.835" fill="none"/>
    </clipPath>
    <clipPath id="clip-path-8">
      <rect id="Rectangle_2733" data-name="Rectangle 2733" width="21.11" height="73.446" transform="translate(-1904.543 920.256)" fill="none"/>
    </clipPath>
    <clipPath id="clip-path-9">
      <rect id="Rectangle_2734" data-name="Rectangle 2734" width="21.628" height="6.575" transform="translate(-1886.832 925.559)" fill="none"/>
    </clipPath>
    <clipPath id="clip-path-10">
      <path id="Path_6147" data-name="Path 6147" d="M-1886.607,925.559c-.3,4.379-1.265,22.42-1.95,43.773a27.25,27.25,0,0,0-5.344,4.272c-2.63,2.563-10.643,18.4-10.643,18.4a6.87,6.87,0,0,0,4.086,4.2s20.2-20.516,21.768-22.243,7.9-35.738,8.314-38.288c0,0,6.338-6.453,6.527-11.812l-20.572-10.3c-.875,3.288-1.59,3.4-2.184,12" fill="none"/>
    </clipPath>
  </defs>
  <g id="Group_1662" data-name="Group 1662" transform="translate(1923.57 -851.596)">
    <g id="Group_1780" data-name="Group 1780">
      <g id="Group_1779" data-name="Group 1779" clip-path="url(#clip-path)">
        <g id="Group_1661" data-name="Group 1661">
          <g id="Group_1642" data-name="Group 1642">
            <g id="Group_1762" data-name="Group 1762">
              <g id="Group_1761" data-name="Group 1761" clip-path="url(#clip-path)">
                <g id="Group_1641" data-name="Group 1641">
                  <g id="Group_1640" data-name="Group 1640" opacity="0.12">
                    <g id="Group_1639" data-name="Group 1639">
                      <g id="Group_1637" data-name="Group 1637">
                        <g id="Group_1760" data-name="Group 1760">
                          <g id="Group_1759" data-name="Group 1759" clip-path="url(#clip-path-3)">
                            <g id="Group_1636" data-name="Group 1636">
                              <rect id="Rectangle_2659" data-name="Rectangle 2659" width="252.392" height="159.66" transform="translate(-1915.183 863.363)" fill="#90a0b2"/>
                            </g>
                          </g>
                        </g>
                      </g>
                      <rect id="Rectangle_2660" data-name="Rectangle 2660" width="237.179" height="155.099" transform="translate(-1909.375 867.633)" fill="none"/>
                    </g>
                  </g>
                  <path id="Path_5792" data-name="Path 5792" d="M-1825.355,1018.193a38.806,38.806,0,0,0,.624-13.747c-1.028-7.525-7.683-19.158-14.073-18.765s-6.7,7.8-2.846,11.369,13.146,11.843,12.98,20.831Z" fill="#90a0b2"/>
                  <path id="Path_5793" data-name="Path 5793" d="M-1839.022,989.965c3.727,2.34,13.8,11.559,12.256,28.1" fill="none" stroke="#3b55ce" stroke-linecap="round" stroke-miterlimit="10" stroke-width="0.614"/>
                  <path id="Path_5794" data-name="Path 5794" d="M-1826.766,1018.061a19.2,19.2,0,0,0-5.223-12.712c-5.4-5.634-14.208-6.722-18.379-4-3.844,2.509-3.3,8.288,3.848,8.5,10.964.32,15.84,1.942,17.849,8.038Z" fill="#818d99"/>
                  <path id="Path_5795" data-name="Path 5795" d="M-1848.35,1004.056c5.141-.982,18.4.489,20.8,14.042" fill="none" stroke="#3b55ce" stroke-linecap="round" stroke-miterlimit="10" stroke-width="0.614"/>
                  <path id="Path_5796" data-name="Path 5796" d="M-1692.665,1017.514s5.487-11.875-1.013-20-13.7-4.942-13.7-4.942-6.037-18.823-21.129-13.21-9.752,19.545-9.752,19.545-3.948-1.393-6.269,1.626,0,6.268,0,6.268-16.02,1.224-16.02,10.713Z" fill="#90a0b2"/>
                  <path id="Path_5797" data-name="Path 5797" d="M-1685.507,1020.082H-1922.86c-.392,0-.71-.574-.71-1.284s.318-1.284.71-1.284h237.353c.392,0,.709.574.709,1.284s-.317,1.284-.709,1.284" fill="#56cd93"/>
                  <path id="Path_5798" data-name="Path 5798" d="M-1816.482,965.117h25.333v19.811h-19.184Z" fill="#778ff9"/>
                  <rect id="Rectangle_2661" data-name="Rectangle 2661" width="10.077" height="19.811" transform="translate(-1791.15 965.121)" fill="#607ce2"/>
                  <rect id="Rectangle_2662" data-name="Rectangle 2662" width="20.292" height="19.811" transform="translate(-1781.073 965.121)" fill="#ffc854"/>
                  <path id="Path_5799" data-name="Path 5799" d="M-1751.654,984.932h-9.127V965.118h12.989Z" fill="#ffb852"/>
                  <path id="Path_5800" data-name="Path 5800" d="M-1799.343,932.175v-6.346a6.082,6.082,0,0,1,6.082-6.082,6.082,6.082,0,0,1,6.082,6.082v6.346" fill="none" stroke="#fffff8" stroke-linecap="round" stroke-miterlimit="10" stroke-width="0.83"/>
                  <path id="Path_5801" data-name="Path 5801" d="M-1785.384,929.116h-25.767l-3.025,36h25.767Z" fill="#ea5e5d"/>
                  <path id="Path_5802" data-name="Path 5802" d="M-1780.863,929.116h-4.519l-3.025,36h10.57Z" fill="#d34a4a"/>
                  <path id="Path_5803" data-name="Path 5803" d="M-1788.409,965.121l5.286-4.735,5.284,4.735Z" fill="#a52f2f"/>
                  <path id="Path_5804" data-name="Path 5804" d="M-1805.425,932.657a1.055,1.055,0,0,1,1.056-1.054,1.054,1.054,0,0,1,1.054,1.056,1.054,1.054,0,0,1-1.055,1.054,1.056,1.056,0,0,1-1.055-1.055h0" fill="#a52f2f"/>
                  <path id="Path_5805" data-name="Path 5805" d="M-1793.257,932.657a1.055,1.055,0,0,1,1.056-1.054,1.054,1.054,0,0,1,1.054,1.056,1.054,1.054,0,0,1-1.055,1.054,1.056,1.056,0,0,1-1.055-1.055h0" fill="#a52f2f"/>
                  <path id="Path_5806" data-name="Path 5806" d="M-1804.369,932.175v-6.346a6.082,6.082,0,0,1,6.082-6.082,6.082,6.082,0,0,1,6.082,6.082v6.346" fill="none" stroke="#fffff8" stroke-linecap="round" stroke-miterlimit="10" stroke-width="0.83"/>
                  <path id="Path_5807" data-name="Path 5807" d="M-1769.3,932.175v-6.346a6.082,6.082,0,0,1,6.082-6.082,6.082,6.082,0,0,1,6.082,6.082v6.346" fill="none" stroke="#fffff8" stroke-linecap="round" stroke-miterlimit="10" stroke-width="0.83"/>
                  <path id="Path_5808" data-name="Path 5808" d="M-1755.338,929.116H-1781.1l-3.025,36h25.768Z" fill="#60e99c"/>
                  <path id="Path_5809" data-name="Path 5809" d="M-1750.817,929.116h-4.521l-3.025,36h10.57Z" fill="#56cd93"/>
                  <path id="Path_5810" data-name="Path 5810" d="M-1758.362,965.121l5.286-4.735,5.284,4.735Z" fill="#56cd93"/>
                  <path id="Path_5811" data-name="Path 5811" d="M-1775.378,932.657a1.056,1.056,0,0,1,1.056-1.056,1.056,1.056,0,0,1,1.056,1.056,1.056,1.056,0,0,1-1.056,1.056h0a1.056,1.056,0,0,1-1.055-1.055h0" fill="#56cd93"/>
                  <path id="Path_5812" data-name="Path 5812" d="M-1763.219,932.657a1.056,1.056,0,0,1,1.056-1.056,1.056,1.056,0,0,1,1.056,1.056,1.056,1.056,0,0,1-1.056,1.056h0a1.056,1.056,0,0,1-1.056-1.054v0" fill="#56cd93"/>
                  <path id="Path_5813" data-name="Path 5813" d="M-1774.323,932.175v-6.346a6.082,6.082,0,0,1,6.082-6.082,6.082,6.082,0,0,1,6.082,6.082v6.346" fill="none" stroke="#fffff8" stroke-linecap="round" stroke-miterlimit="10" stroke-width="0.83"/>
                  <path id="Path_5814" data-name="Path 5814" d="M-1838.784,928.979h5.775a6.278,6.278,0,0,1,5.968,4.324l16.266,49.629a2.975,2.975,0,0,0,2.827,2.048h54.5a2.977,2.977,0,0,0,2.935-2.491l6.424-38.969h-79.6" fill="none" stroke="#001c45" stroke-linecap="round" stroke-miterlimit="10" stroke-width="7"/>
                  <path id="Path_5815" data-name="Path 5815" d="M-1757.525,984.932h-38.223a21.419,21.419,0,0,0-21.418,21.42h57.159" fill="none" stroke="#001c45" stroke-linecap="round" stroke-miterlimit="10" stroke-width="7"/>
                  <path id="Path_5816" data-name="Path 5816" d="M-1812.442,1013.1a4.412,4.412,0,0,1,4.413-4.411,4.411,4.411,0,0,1,4.411,4.413,4.411,4.411,0,0,1-4.412,4.411,4.413,4.413,0,0,1-4.412-4.412h0" fill="#001c45"/>
                  <path id="Path_5817" data-name="Path 5817" d="M-1808.654,1007.643a8,8,0,0,1-1.264,5.234c-1.243,1.776,1.617,2.894,4.491,1.161,3.415-2.059,4.37-6.4,4.37-6.4Z" fill="#2e3f87"/>
                  <path id="Path_5818" data-name="Path 5818" d="M-1808.967,1013.1a.936.936,0,0,1,.937-.935.935.935,0,0,1,.935.937.936.936,0,0,1-.937.935.936.936,0,0,1-.935-.935v0" fill="#001c45"/>
                  <path id="Path_5819" data-name="Path 5819" d="M-1781.59,1013.1a4.412,4.412,0,0,1,4.413-4.411,4.411,4.411,0,0,1,4.411,4.413,4.411,4.411,0,0,1-4.412,4.411,4.413,4.413,0,0,1-4.412-4.412h0" fill="#001c45"/>
                  <path id="Path_5820" data-name="Path 5820" d="M-1777.8,1007.643a7.992,7.992,0,0,1-1.264,5.234c-1.243,1.776,1.617,2.894,4.491,1.161,3.415-2.059,4.37-6.4,4.37-6.4Z" fill="#2e3f87"/>
                  <path id="Path_5821" data-name="Path 5821" d="M-1778.113,1013.1a.936.936,0,0,1,.937-.935.935.935,0,0,1,.935.937.936.936,0,0,1-.936.935.936.936,0,0,1-.936-.934v0" fill="#001c45"/>
                  <line id="Line_1" data-name="Line 1" x2="72.776" transform="translate(-1819.149 957.385)" fill="none" stroke="#001c45" stroke-linecap="round" stroke-miterlimit="10" stroke-width="7"/>
                  <line id="Line_2" data-name="Line 2" x2="65.949" transform="translate(-1814.606 971.247)" fill="none" stroke="#001c45" stroke-linecap="round" stroke-miterlimit="10" stroke-width="7"/>
                  <line id="Line_3" data-name="Line 3" x1="9.02" transform="translate(-1844.043 928.979)" fill="none" stroke="#ea5e5d" stroke-linecap="round" stroke-miterlimit="10" stroke-width="4.072"/>
                  <path id="Path_5822" data-name="Path 5822" d="M-1856.1,1014.576c.273.513.065,1.549-1.992,2.4s-5.778.492-7.256.2a8.9,8.9,0,0,0-4.568-.262c-2.189.458-5.775.258-6.863-.66-.376-.435-.123-1.336-.123-1.336Z" fill="#aaeeed"/>
                  <path id="Path_5823" data-name="Path 5823" d="M-1875.726,1008.172c-.3,1.5-1.524,5.037-1.173,6.753,1.539,1.3,4.831,1.39,7.3.767s4.206.643,7.3.824c3.041.179,5.576-.667,6.2-1.94.676-1.389-4.634-2.464-8.254-3.575a16.487,16.487,0,0,1-6.141-3.241Z" fill="#1b3149"/>
                </g>
              </g>
            </g>
          </g>
          <g id="Group_1644" data-name="Group 1644">
            <g id="Group_1764" data-name="Group 1764">
              <g id="Group_1763" data-name="Group 1763" clip-path="url(#clip-path-4)">
                <g id="Group_1643" data-name="Group 1643">
                  <path id="Path_5824" data-name="Path 5824" d="M-1869.266,1011.074a6.84,6.84,0,0,1,1.7-2.7" fill="none" stroke="#aaeeed" stroke-linecap="round" stroke-miterlimit="10" stroke-width="0.549"/>
                  <path id="Path_5825" data-name="Path 5825" d="M-1866.512,1012.167a6.84,6.84,0,0,1,1.7-2.7" fill="none" stroke="#aaeeed" stroke-linecap="round" stroke-miterlimit="10" stroke-width="0.549"/>
                  <path id="Path_5826" data-name="Path 5826" d="M-1863.758,1013.26a6.842,6.842,0,0,1,1.7-2.7" fill="none" stroke="#aaeeed" stroke-linecap="round" stroke-miterlimit="10" stroke-width="0.549"/>
                </g>
              </g>
            </g>
          </g>
          <g id="Group_1646" data-name="Group 1646">
            <g id="Group_1766" data-name="Group 1766">
              <g id="Group_1765" data-name="Group 1765" clip-path="url(#clip-path)">
                <g id="Group_1645" data-name="Group 1645">
                  <path id="Path_5828" data-name="Path 5828" d="M-1875.726,1002.181v5.991a2.7,2.7,0,0,1,.984.57c.29.341.685,1.47,1.172,1.49,1.935.08,3.077-2.472,3.077-2.472l.727-5.446Z" fill="#ff9a8d"/>
                  <path id="Path_5829" data-name="Path 5829" d="M-1905.239,1015.9c-.347.466-1.371.722-3.027-.77s-2.922-5.008-3.294-6.469a8.889,8.889,0,0,0-1.721-4.238c-1.352-1.781-2.708-5.108-2.344-6.483.231-.527,1.154-.683,1.154-.683Z" fill="#aaeeed"/>
                  <path id="Path_5830" data-name="Path 5830" d="M-1907.866,995.42c-1.485.374-5.2.783-6.6,1.835-.516,1.948.814,4.96,2.436,6.924s1.221,4.076,2.386,6.953c1.142,2.823,2.993,4.751,4.41,4.766,1.545.016.239-5.243-.307-8.99a16.467,16.467,0,0,1,.3-6.937Z" fill="#1b3149"/>
                </g>
              </g>
            </g>
          </g>
          <g id="Group_1648" data-name="Group 1648">
            <g id="Group_1768" data-name="Group 1768">
              <g id="Group_1767" data-name="Group 1767" clip-path="url(#clip-path-6)">
                <g id="Group_1647" data-name="Group 1647">
                  <path id="Path_5831" data-name="Path 5831" d="M-1907.719,1002.5a6.832,6.832,0,0,1,3.171.379" fill="none" stroke="#aaeeed" stroke-linecap="round" stroke-miterlimit="10" stroke-width="0.549"/>
                  <path id="Path_5832" data-name="Path 5832" d="M-1907.526,1005.457a6.858,6.858,0,0,1,3.171.379" fill="none" stroke="#aaeeed" stroke-linecap="round" stroke-miterlimit="10" stroke-width="0.549"/>
                  <path id="Path_5833" data-name="Path 5833" d="M-1907.333,1008.415a6.832,6.832,0,0,1,3.171.379" fill="none" stroke="#aaeeed" stroke-linecap="round" stroke-miterlimit="10" stroke-width="0.549"/>
                </g>
              </g>
            </g>
          </g>
          <g id="Group_1656" data-name="Group 1656">
            <g id="Group_1774" data-name="Group 1774">
              <g id="Group_1773" data-name="Group 1773" clip-path="url(#clip-path)">
                <g id="Group_1655" data-name="Group 1655">
                  <path id="Path_5835" data-name="Path 5835" d="M-1904.543,992.007l-3.323,3.412a2.684,2.684,0,0,1-.094,1.133c-.184.408-1.034,1.25-.844,1.7.758,1.781,3.552,1.719,3.552,1.719l4.793-3.762Z" fill="#ff9a8d"/>
                  <path id="Path_5836" data-name="Path 5836" d="M-1864.158,916.854c-6.708,0-11.7.505-11.7.505-2.145.939-5.827,5.815-6.911,8.909s-.643,8.27-.078,10.933c3.15,14.835,8.41,23.382,9.634,29.264.749,3.6-2.814,1.663-2.814,10.783,0,8.159.3,25.551.3,25.551a7.841,7.841,0,0,0,5.834.461s5.034-28.685,5.587-31.967c.9-5.323,1.2-7.556,1.3-16.767.141-12.954-1.156-37.673-1.156-37.673" fill="#1b3149"/>
                  <path id="Path_5837" data-name="Path 5837" d="M-1900.458,996.21s20.2-20.516,21.768-22.242,7.9-35.738,8.314-38.289c0,0,6.337-6.453,6.527-11.812l-20.573-10.3c-.875,3.288-1.589,3.4-2.184,12-.3,4.379-1.265,22.42-1.95,43.772a27.28,27.28,0,0,0-5.344,4.272c-2.63,2.563-10.643,18.4-10.643,18.4a6.868,6.868,0,0,0,4.085,4.2" fill="#1b3149"/>
                  <g id="Group_1651" data-name="Group 1651" opacity="0.4">
                    <g id="Group_1650" data-name="Group 1650">
                      <g id="Group_1770" data-name="Group 1770">
                        <g id="Group_1769" data-name="Group 1769" clip-path="url(#clip-path-8)">
                          <g id="Group_1649" data-name="Group 1649">
                            <path id="Path_5838" data-name="Path 5838" d="M-1886.606,925.56c-.3,4.379-1.265,22.42-1.95,43.773a27.247,27.247,0,0,0-5.344,4.272c-2.63,2.563-10.643,18.4-10.643,18.4a7,7,0,0,0,.859,1.7c1.938-4,7.127-13.643,9.607-17.065,3.142-4.333,6.826-5.632,7.471-6.174s.33-2.383.546-6.5,2.628-39.645,2.628-39.645l-2.667-4.06c-.178,1.311-.346,3-.506,5.3" fill="#1b3149"/>
                          </g>
                        </g>
                      </g>
                    </g>
                  </g>
                  <g id="Group_1654" data-name="Group 1654" opacity="0.4">
                    <g id="Group_1653" data-name="Group 1653">
                      <g id="Group_1772" data-name="Group 1772">
                        <g id="Group_1771" data-name="Group 1771" clip-path="url(#clip-path-9)">
                          <g id="Group_1652" data-name="Group 1652">
                            <path id="Path_5839" data-name="Path 5839" d="M-1865.2,928.5a16.74,16.74,0,0,1-10.552,3.635,22.534,22.534,0,0,1-11.076-2.873l.226-3.7Z" fill="#1b3149"/>
                          </g>
                        </g>
                      </g>
                    </g>
                  </g>
                </g>
              </g>
            </g>
          </g>
          <g id="Group_1658" data-name="Group 1658">
            <g id="Group_1776" data-name="Group 1776">
              <g id="Group_1775" data-name="Group 1775" clip-path="url(#clip-path-10)">
                <g id="Group_1657" data-name="Group 1657">
                  <path id="Path_5840" data-name="Path 5840" d="M-1869.609,913.429c-3,5.68-8.374,9.215-9.829,13s-1.815,10.923-3.029,24.865c-1.154,13.248-1.6,17.29-1.767,19.916-1.279,1.675-4.874,2.741-9.514,9.131-4.489,6.184-10.307,16-10.307,16" fill="none" stroke="#274d79" stroke-miterlimit="10" stroke-width="0.549"/>
                  <path id="Path_5841" data-name="Path 5841" d="M-1873.2,928.525s-.507,8.593-7.891,8.157" fill="none" stroke="#274d79" stroke-miterlimit="10" stroke-width="0.549"/>
                  <path id="Path_5842" data-name="Path 5842" d="M-1903.582,989.228c.437,2.277,3.036,4.477,6.274,5.722" fill="none" stroke="#274d79" stroke-miterlimit="10" stroke-width="0.549"/>
                </g>
              </g>
            </g>
          </g>
          <g id="Group_1660" data-name="Group 1660">
            <g id="Group_1778" data-name="Group 1778">
              <g id="Group_1777" data-name="Group 1777" clip-path="url(#clip-path)">
                <g id="Group_1659" data-name="Group 1659">
                  <path id="Path_5844" data-name="Path 5844" d="M-1864.595,882.249c.433.466.576,1.363-.191,4.1l-9.581-8.056Z" fill="#6c7882"/>
                  <path id="Path_5845" data-name="Path 5845" d="M-1856.663,867.009c.2.775,1.421,4.171,1.845,5.176s-2.25.489-2.25.489Z" fill="#ba5964"/>
                  <path id="Path_5846" data-name="Path 5846" d="M-1872.487,878.29l6.979,6.319,2.506-6.56-6.819-7.212Z" fill="#ff9a8d"/>
                  <path id="Path_5847" data-name="Path 5847" d="M-1864.1,880.937s-6.744-5.165-5.719-10.1l6.821,7.216Z" fill="#ba5964"/>
                  <path id="Path_5848" data-name="Path 5848" d="M-1869.8,870.831a18.051,18.051,0,0,0,.383,1.942c.234.85,5.671,5.063,7.235,5.715s3.806.926,4.894-4.6,1.032-10.587-1.892-14.047-8.735-2.212-11.894.638-2.737,10.3,1.274,10.35" fill="#ff9a8d"/>
                  <path id="Path_5849" data-name="Path 5849" d="M-1869.8,870.831l-1.039,2.853s-1.161-.467-2.179-2.851c-1.115-2.607-3.217-7.116-2.262-9.336a5.4,5.4,0,0,1,4.151-2.922c.6-.112.8.03,1.062-.492a6.008,6.008,0,0,1,2.325-2.918,6.39,6.39,0,0,1,3.075-.913,17.9,17.9,0,0,1,3.947.477,26.1,26.1,0,0,0,8.119.045.412.412,0,0,1,.32.039.39.39,0,0,1,.089.349c-.227,2.3-1.88,3.5-3.922,4.205,0,0,3.179,2.885.45,3.631s-9.355-1.3-9.355-1.3,2.925,2.173,1.69,2.826-5.357-.918-5.357-.918l-.069,2.28a2.8,2.8,0,0,0-2.82-.158c-1.49,1.023-.8,5.139,1.775,5.106" fill="#001c45"/>
                  <path id="Path_5850" data-name="Path 5850" d="M-1869.109,851.767s-3.313,3.882-.285,7.969c0,0-3.826-1.208-3.618-5.1" fill="none" stroke="#001c45" stroke-linecap="round" stroke-miterlimit="10" stroke-width="0.823"/>
                  <path id="Path_5851" data-name="Path 5851" d="M-1865.567,885.688s.988-2.374.556-3c-1.428-2.08-6.092-8.214-6.74-7.626s-2.615,3.232-2.615,3.232Z" fill="#818d99"/>
                  <path id="Path_5852" data-name="Path 5852" d="M-1864.786,886.349c.6,2.753.545,7.293.92,16.924.241,6.194.864,24.17.864,24.17s-4.742,3.109-12.709,2.472c-7.61-.61-10.9-4.352-10.9-4.352s.794-25.277,3.3-35.226c3.7-10.26,8.944-12.043,8.944-12.043Z" fill="#90a0b2"/>
                  <path id="Path_5853" data-name="Path 5853" d="M-1863.422,915.456l-16.284-23.083c.539,3.742,8.673,24.287,8.673,24.287l1.318-.108s1.637,3.789,2.346,4.908c.467.739,2.884,1.422,4.224,1.84-.076-2.171-.175-4.968-.276-7.844" fill="#6c7882"/>
                  <path id="Path_5854" data-name="Path 5854" d="M-1874.366,878.29l8.8,7.4.782.659a1.887,1.887,0,0,1,.219,1.333Z" fill="#6c7882"/>
                  <path id="Path_5855" data-name="Path 5855" d="M-1859.68,867.318a.693.693,0,0,0-.731-.653.694.694,0,0,0-.653.731.694.694,0,0,0,.731.653.693.693,0,0,0,.653-.731h0" fill="#001c45"/>
                  <path id="Path_5856" data-name="Path 5856" d="M-1859.11,865.5l-3.164,1a1.652,1.652,0,0,1,1.159-1.414,1.868,1.868,0,0,1,2,.409" fill="#001c45"/>
                  <path id="Path_5857" data-name="Path 5857" d="M-1870.921,866.626a1.63,1.63,0,0,1,1.435.161c.134.109-.1.331-.225.283-.728-.271-1.619-.307-1.979.544-.019.045-.051,0-.045-.033a1.192,1.192,0,0,1,.814-.955" fill="#ba5964"/>
                  <path id="Path_5858" data-name="Path 5858" d="M-1870.582,866.694c.081-.038.265.163.248.219a1,1,0,0,0-.4.35,1.319,1.319,0,0,0-.172.824,1.472,1.472,0,0,0,1.175,1.412c.014,0,.035.04.014.045a1.413,1.413,0,0,1-1.458-1.036,1.511,1.511,0,0,1,.591-1.814" fill="#ba5964"/>
                  <path id="Path_5859" data-name="Path 5859" d="M-1880.008,890.341c-.8-4.483,7.751-7.32,10.148-1.606,2.354,5.611,8.319,24.92,8.319,24.92s17.531,11.051,19.282,10.885c2.347-.222,8.222,6.182,7.511,7.19-.689.976-3.664,1.831-5.761,1.232-1.734-.5-3.407-3.606-4.078-4.115-3.392-1.139-19.64-6.511-21.8-8.386s-13.1-27.2-13.62-30.121" fill="#ff9a8d"/>
                  <path id="Path_5860" data-name="Path 5860" d="M-1870.481,886.546a60.087,60.087,0,0,1,3.185,8.472c.984,3.352,5.35,17.332,5.35,17.332s-2.847,3.526-6.972,3.886c0,0-3.239-6.622-5.217-10.725s-5.292-12.229-6.126-14.647,1.865-6.623,3.489-6.959,5.175.133,6.294,2.641" fill="#818d99"/>
                </g>
              </g>
            </g>
          </g>
        </g>
      </g>
    </g>
  </g>
</svg>
