<svg xmlns="http://www.w3.org/2000/svg" width="15.244" height="16.328" viewBox="0 0 15.244 16.328">
  <g id="Group_1709" data-name="Group 1709" transform="translate(0)">
    <path id="Path_799" data-name="Path 799" d="M324.714,47.543h-5.443a.544.544,0,0,1-.546-.542c0-.017,0-.034,0-.051l1.089-11.974a.544.544,0,0,1,.544-.5h3.266a.544.544,0,0,1,.544.5l1.089,11.974a.544.544,0,0,1-.493.591l-.051,0m-4.85-1.089h4.256l-.99-10.886h-2.275Z" transform="translate(-310.016 -31.214)" fill="#0a0909"/>
    <path id="Path_800" data-name="Path 800" d="M244.606,47.543H235.9a.544.544,0,0,1-.546-.542c0-.017,0-.034,0-.051l1.089-11.974a.544.544,0,0,1,.544-.5h8.709a.544.544,0,0,1,.546.542c0,.017,0,.034,0,.051L245.15,47.047a.544.544,0,0,1-.544.5m-8.115-1.089h7.62l.991-10.886h-7.62Z" transform="translate(-235.351 -31.214)" fill="#0a0909"/>
    <rect id="Rectangle_701" data-name="Rectangle 701" width="1.089" height="3.266" transform="translate(11.432 12.518)" fill="#0a0909"/>
    <path id="Path_801" data-name="Path 801" d="M271.536,9.746a.544.544,0,0,1-.544-.544V5.936a1.633,1.633,0,0,0-3.266,0V9.2a.544.544,0,1,1-1.089,0V5.936a2.721,2.721,0,0,1,5.443,0V9.2a.544.544,0,0,1-.544.544" transform="translate(-263.37 -3.215)" fill="#0a0909"/>
    <path id="Path_802" data-name="Path 802" d="M321.467,7.569a.544.544,0,0,1-.544-.544V5.936A1.633,1.633,0,0,0,319.29,4.3a.544.544,0,1,1,0-1.089,2.722,2.722,0,0,1,2.721,2.721V7.025a.544.544,0,0,1-.544.544" transform="translate(-310.035 -3.215)" fill="#0a0909"/>
  </g>
</svg>
