<svg xmlns="http://www.w3.org/2000/svg" width="10.927" height="11.023" viewBox="0 0 10.927 11.023">
  <g id="Group_3096" data-name="Group 3096" transform="translate(0 0)">
    <path id="Path_7483" data-name="Path 7483" d="M-769.911,3694.5a.46.46,0,0,0,.459-.459v-1.791A1.454,1.454,0,0,1-768,3690.8a1.454,1.454,0,0,1,1.453,1.453v1.791a.459.459,0,0,0,.459.459.459.459,0,0,0,.459-.459v-1.791a2.374,2.374,0,0,0-2.371-2.371,2.374,2.374,0,0,0-2.371,2.371v1.791A.46.46,0,0,0-769.911,3694.5Z" transform="translate(773.476 -3689.882)" fill="#fff"/>
    <path id="Path_7484" data-name="Path 7484" d="M-805.741,3743.18h-2.438v.573a.919.919,0,0,1-.919.919.919.919,0,0,1-.919-.919v-.573H-812v.573a.919.919,0,0,1-.919.919.919.919,0,0,1-.919-.919v-.573H-816.3a.172.172,0,0,0-.175.223l1.607,6.545a.942.942,0,0,0,.865.666h5.971a.942.942,0,0,0,.865-.666l1.607-6.545A.171.171,0,0,0-805.741,3743.18Zm-3.65,4.909a.458.458,0,0,1,0,.647.458.458,0,0,1-.647,0l-.971-.971-.971.971a.458.458,0,0,1-.647,0,.458.458,0,0,1,0-.647l.971-.971-.971-.97a.458.458,0,0,1,0-.647.458.458,0,0,1,.647,0l.971.97.971-.97a.458.458,0,0,1,.647,0,.458.458,0,0,1,0,.647l-.971.97Z" transform="translate(816.486 -3739.59)" fill="#fff"/>
  </g>
</svg>
