<svg xmlns="http://www.w3.org/2000/svg" width="16.678" height="17.255" viewBox="0 0 16.678 17.255">
  <g id="Group_1494" data-name="Group 1494" transform="translate(-334.286 -1568.997)">
    <path id="Path_2416" data-name="Path 2416" d="M351.307,1616.189s-.533-.618-.9-.618h-.3v-1.424a.721.721,0,0,0-1.442,0v1.424h-1.834v-1.424a.721.721,0,0,0-1.442,0v1.424h-.305c-.366,0-.9.618-.9.618l-3.945,3.684a.921.921,0,0,0-.274.576V1625a1.325,1.325,0,0,0,1.325,1.324H354.2a1.325,1.325,0,0,0,1.324-1.324v-4.552a.923.923,0,0,0-.274-.576Zm2.417,8.333h-11.96v-3.61l3.647-3.4.064-.058.064-.074v0h4.409l.058.067.071.066,3.647,3.4v3.61Z" transform="translate(-5.119 -40.073)" fill="#5bdb98"/>
    <path id="Path_2417" data-name="Path 2417" d="M345.556,1569h-5.861a5.41,5.41,0,0,0-5.409,5.41v.723a.369.369,0,0,0,.369.369h3.321a.9.9,0,0,0,.9-.9v-1.858a.9.9,0,0,1,.9-.9h5.691a.9.9,0,0,1,.9.9v1.858a.9.9,0,0,0,.9.9H350.6a.368.368,0,0,0,.368-.369v-.723A5.409,5.409,0,0,0,345.556,1569Z" transform="translate(0 0)" fill="#5bdb98"/>
    <path id="Path_2418" data-name="Path 2418" d="M394.03,1663.022a2.752,2.752,0,1,0,2.752,2.752A2.752,2.752,0,0,0,394.03,1663.022Zm0,3.424a.672.672,0,1,1,.672-.672A.672.672,0,0,1,394.03,1666.446Z" transform="translate(-51.405 -84.807)" fill="#5bdb98"/>
  </g>
</svg>
