<svg id="Group_3060" data-name="Group 3060" xmlns="http://www.w3.org/2000/svg" width="30.17" height="30.17" viewBox="0 0 30.17 30.17">
  <path id="Dark_Blue" data-name="Dark Blue" d="M-58.6-121.83H-81.229A3.773,3.773,0,0,1-85-125.6v-22.627A3.773,3.773,0,0,1-81.229-152H-58.6a3.773,3.773,0,0,1,3.771,3.771V-125.6A3.773,3.773,0,0,1-58.6-121.83Z" transform="translate(85 152)" fill="#1da1f2"/>
  <path id="Logo_FIXED" data-name="Logo — FIXED" d="M-67.814-121.914a10.933,10.933,0,0,0,11-11c0-.166,0-.332-.008-.5a7.879,7.879,0,0,0,1.931-2.006,7.839,7.839,0,0,1-2.225.611,3.891,3.891,0,0,0,1.7-2.142,7.693,7.693,0,0,1-2.459.935,3.86,3.86,0,0,0-2.821-1.222,3.872,3.872,0,0,0-3.869,3.869,4.275,4.275,0,0,0,.1.882,10.983,10.983,0,0,1-7.972-4.043,3.868,3.868,0,0,0-.52,1.946,3.878,3.878,0,0,0,1.72,3.221,3.912,3.912,0,0,1-1.75-.483v.053a3.876,3.876,0,0,0,3.1,3.794,3.772,3.772,0,0,1-1.018.136,3.8,3.8,0,0,1-.724-.068,3.868,3.868,0,0,0,3.613,2.685,7.757,7.757,0,0,1-4.8,1.659,7.445,7.445,0,0,1-.92-.053,11,11,0,0,0,5.921,1.727" transform="translate(79.399 144.662)" fill="#fff"/>
</svg>
