<svg xmlns="http://www.w3.org/2000/svg" xmlns:xlink="http://www.w3.org/1999/xlink" width="26.021" height="28.189" viewBox="0 0 26.021 28.189">
  <defs>
    <clipPath id="clip-path">
      <rect id="Rectangle_2539" data-name="Rectangle 2539" width="26.021" height="28.189" fill="#fff"/>
    </clipPath>
  </defs>
  <g id="Group_1467" data-name="Group 1467" clip-path="url(#clip-path)">
    <path id="Path_6143" data-name="Path 6143" d="M53.011,133.189a4.337,4.337,0,0,1-4.337-4.337,1.084,1.084,0,0,1,1.084-1.084h6.505a1.084,1.084,0,0,1,1.084,1.084,4.337,4.337,0,0,1-4.337,4.337m-1.876-3.252a2.168,2.168,0,0,0,3.751,0Z" transform="translate(-40 -105)" fill="#fff"/>
    <path id="Path_6144" data-name="Path 6144" d="M60.179,4.337H55.842a1.084,1.084,0,0,1-1.084-1.084,3.253,3.253,0,1,1,6.505,0,1.084,1.084,0,0,1-1.084,1.084" transform="translate(-45 0)" fill="#fff"/>
    <path id="Path_6145" data-name="Path 6145" d="M24.938,34.936H1.085A1.084,1.084,0,0,1,0,33.852a7.588,7.588,0,0,1,3.253-6.234V21.926a9.758,9.758,0,0,1,9.693-9.758h.119a9.758,9.758,0,0,1,9.758,9.758v5.692a7.589,7.589,0,0,1,3.2,6.234,1.084,1.084,0,0,1-1.084,1.084M2.278,32.768H23.745a5.421,5.421,0,0,0-2.6-3.61,1.084,1.084,0,0,1-.542-.943V21.926a7.589,7.589,0,1,0-15.179,0v6.288a1.085,1.085,0,0,1-.542.943,5.421,5.421,0,0,0-2.6,3.61" transform="translate(-0.001 -10)" fill="#fff"/>
  </g>
</svg>
