<svg xmlns="http://www.w3.org/2000/svg" width="22" height="20.08" viewBox="0 0 22 20.08">
  <g id="Group_1936" data-name="Group 1936" transform="translate(-427.944 -3690.173)">
    <path id="Path_6484" data-name="Path 6484" d="M428.944,3694.253h3a.925.925,0,0,0,.2-.04,2.947,2.947,0,0,0,5.608,0,.912.912,0,0,0,.2.04h11a1,1,0,0,0,0-2h-11a.942.942,0,0,0-.15.03,2.98,2.98,0,0,0-5.7,0,.942.942,0,0,0-.15-.03h-3a1,1,0,0,0,0,2Zm6-3.08a2,2,0,0,1,2,2,2,2,0,1,1-4,0A2,2,0,0,1,434.944,3691.173Z" fill="#1b3149"/>
    <path id="Path_6485" data-name="Path 6485" d="M448.944,3699.253h-3a.942.942,0,0,0-.15.03,2.98,2.98,0,0,0-5.7,0,.942.942,0,0,0-.15-.03h-11a1,1,0,0,0,0,2h11a.92.92,0,0,0,.2-.04,2.984,2.984,0,0,0,5.606,0,.92.92,0,0,0,.2.04h3a1,1,0,0,0,0-2Zm-6,2.92a2,2,0,1,1,2-2A2,2,0,0,1,442.944,3702.173Z" fill="#1b3149"/>
    <path id="Path_6486" data-name="Path 6486" d="M448.944,3706.253h-9a.942.942,0,0,0-.15.03,2.98,2.98,0,0,0-5.7,0,.942.942,0,0,0-.15-.03h-5a1,1,0,0,0,0,2h5a.925.925,0,0,0,.2-.04,2.947,2.947,0,0,0,5.608,0,.912.912,0,0,0,.2.04h9a1,1,0,0,0,0-2Zm-11.981,3a2.1,2.1,0,0,1-2.019-2.08,2,2,0,0,1,4,0A2.09,2.09,0,0,1,436.963,3709.253Z" fill="#1b3149"/>
    <circle id="Ellipse_161" data-name="Ellipse 161" cx="1" cy="1" r="1" transform="translate(441.944 3699.252)" fill="#1b3149"/>
  </g>
</svg>
