<?xml version="1.0" encoding="utf-8"?>
<!-- Generator: Adobe Illustrator 24.0.1, SVG Export Plug-In . SVG Version: 6.00 Build 0)  -->
<svg version="1.1" id="Layer_1" xmlns="http://www.w3.org/2000/svg" xmlns:xlink="http://www.w3.org/1999/xlink" x="0px" y="0px"
	 viewBox="0 0 300 300" style="enable-background:new 0 0 300 300;" xml:space="preserve">
<style type="text/css">
	.st0{fill:#5BDB98;}
</style>
<g>
	<g>
		<g>
			<path class="st0" d="M249.95,110.28c-13.87-55.24-69.88-88.77-125.12-74.91C81.67,46.2,50.33,83.51,47.1,127.9
				c-30.65,5.05-51.4,34-46.34,64.65c4.49,27.25,28.1,47.2,55.72,47.09h46.87v-18.75H56.48c-20.71,0-37.5-16.79-37.5-37.5
				s16.79-37.5,37.5-37.5c5.18,0,9.37-4.2,9.37-9.37c-0.05-46.59,37.69-84.4,84.28-84.45c40.33-0.04,75.05,28.47,82.86,68.05
				c0.77,3.95,3.98,6.97,7.97,7.5c25.63,3.65,43.44,27.38,39.79,53.01c-3.28,23.01-22.92,40.15-46.17,40.26h-37.5v18.75h37.5
				c36.24-0.11,65.53-29.58,65.42-65.82C299.91,143.65,279.26,117.43,249.95,110.28z"/>
			<path class="st0" d="M143.56,148.61l-37.5,37.5l13.22,13.22l21.56-21.47v89.9h18.75v-89.9l21.47,21.47l13.22-13.22l-37.5-37.5
				C153.12,144.98,147.22,144.98,143.56,148.61z"/>
		</g>
	</g>
</g>
</svg>
