<svg id="Group_1578" data-name="Group 1578" xmlns="http://www.w3.org/2000/svg" xmlns:xlink="http://www.w3.org/1999/xlink" width="19.458" height="9.384" viewBox="0 0 19.458 9.384">
  <defs>
    <clipPath id="clip-path">
      <rect id="Rectangle_2628" data-name="Rectangle 2628" width="19.458" height="9.384" fill="#60e99c"/>
    </clipPath>
  </defs>
  <g id="Group_1577" data-name="Group 1577" clip-path="url(#clip-path)">
    <path id="Path_6341" data-name="Path 6341" d="M15.491,3.517h-.4A9.473,9.473,0,0,0,7.713,0,9.1,9.1,0,0,0,.069,3.793h0A.526.526,0,0,0,0,4.057V7.369a.539.539,0,0,0,.54.54H1.765a2.016,2.016,0,0,0,3.883,0H13.81a2.016,2.016,0,0,0,3.883,0h1.225a.539.539,0,0,0,.54-.54V6.263c0-1.674-2.351-2.746-3.967-2.746M8.222,1.1a8.622,8.622,0,0,1,5.434,2.413H8.222ZM7.142,1.1v2.42H1.662A8.322,8.322,0,0,1,7.142,1.1M3.707,8.3a.934.934,0,1,1,.934-.934.936.936,0,0,1-.934.934m12.04,0a.934.934,0,1,1,.934-.934.936.936,0,0,1-.934.934m2.627-1.474h-.685a2.016,2.016,0,0,0-3.883,0H5.649a2.016,2.016,0,0,0-3.883,0H1.08V4.6H15.491c1.348,0,2.884.888,2.884,1.666Z" transform="translate(0 0)" fill="#60e99c"/>
  </g>
</svg>
