<svg id="Visa" xmlns="http://www.w3.org/2000/svg" width="72.6" height="23.553" viewBox="0 0 72.6 23.553">
  <g id="Group_6" data-name="Group 6">
    <path id="Path_18" data-name="Path 18" d="M31.472,23.16H25.548L29.25.407h5.925ZM20.565.407,14.917,16.055l-.669-3.371h0L12.256,2.457A2.536,2.536,0,0,0,9.448.407H.11L0,.79a22.155,22.155,0,0,1,6.2,2.6L11.345,23.16h6.173L26.942.407ZM67.158,23.16H72.6L67.855.407H63.093A2.726,2.726,0,0,0,60.357,2.1L51.524,23.16H57.7l1.235-3.378h7.529l.694,3.378ZM60.64,15.11l3.112-8.516L65.5,15.11ZM51.986,5.88,52.831.994A17.073,17.073,0,0,0,47.5,0c-2.94,0-9.92,1.284-9.92,7.533,0,5.88,8.2,5.952,8.2,9.04s-7.35,2.533-9.775.587l-.88,5.11a16.624,16.624,0,0,0,6.687,1.284c4.044,0,10.141-2.094,10.141-7.791,0-5.918-8.268-6.466-8.268-9.04s5.769-2.239,8.3-.842Z" transform="translate(0 0)" fill="#2566af"/>
  </g>
  <path id="Path_19" data-name="Path 19" d="M14.251,23.984,12.256,13.75A2.536,2.536,0,0,0,9.448,11.7H.11L0,12.086A22.978,22.978,0,0,1,8.792,16.5,17.758,17.758,0,0,1,14.251,23.984Z" transform="translate(0 -11.296)" fill="#e6a540"/>
</svg>
